<?xml version="1.0" encoding="utf-8"?>
<!-- Generator: Adobe Illustrator 19.0.0, SVG Export Plug-In . SVG Version: 6.00 Build 0)  -->
<svg version="1.1" id="Layer_1" xmlns="http://www.w3.org/2000/svg" xmlns:xlink="http://www.w3.org/1999/xlink" x="0px" y="0px"
	 viewBox="0 0 500 500" style="enable-background:new 0 0 500 500;" xml:space="preserve">
<style type="text/css">
	.st0{fill:#E5E5E5;}
	.st1{fill:url(#SVGID_1_);}
	.st2{fill:url(#SVGID_2_);}
	.st3{fill:#333333;}
	.st4{fill:#FFFFFF;}
	.st5{fill:url(#SVGID_3_);}
	.st6{fill:url(#SVGID_4_);}
	.st7{fill:url(#SVGID_5_);}
	.st8{fill:url(#SVGID_6_);}
	.st9{fill:url(#SVGID_7_);}
	.st10{fill:url(#SVGID_8_);}
	.st11{fill:url(#SVGID_9_);}
	.st12{fill:url(#SVGID_10_);}
	.st13{fill:url(#SVGID_11_);}
	.st14{fill:url(#SVGID_12_);}
	.st15{fill:url(#SVGID_13_);}
	.st16{fill:url(#SVGID_14_);}
	.st17{fill:url(#SVGID_15_);}
</style>
<g id="XMLID_1_">
	<path id="XMLID_2_" class="st0" d="M428,186.3c2.4,2,3.6,3.8,3.1,5.1c0,0.1-0.1,0.1-0.1,0.1v0.1c-0.1,0.2-0.4,0.4-0.6,0.6
		c0,0-4.9,4.3-5.8,6.6l-43.9,114.3c-2.6,6.4-8.7,10.4-15.2,10.4c-1.9,0-3.9-0.3-5.9-1.1c-1.3-0.5-2.5-1.1-3.6-1.9
		c1.4,1.2,3,2.2,4.9,2.9c1.9,0.7,3.9,1.1,5.9,1.1c6.5,0,12.7-3.9,15.2-10.4L426,199.9c0.9-2.2,5.8-6.6,5.8-6.6
		c0.2-0.2,0.4-0.4,0.6-0.6v-0.1c0-0.1,0.1-0.1,0.1-0.1C433,190.9,431.3,188.7,428,186.3"/>
	
		<linearGradient id="SVGID_1_" gradientUnits="userSpaceOnUse" x1="-0.8594" y1="0.2184" x2="-0.1452" y2="0.2184" gradientTransform="matrix(51.4986 19.8035 -10.9826 92.8601 415.4748 240.3815)">
		<stop  offset="0" style="stop-color:#919191"/>
		<stop  offset="1" style="stop-color:#FFFFFF"/>
	</linearGradient>
	<path class="st1" d="M399.3,175.5c-2.7,0-4.5,0.6-5,1.8c0,0.1,0,0.1-0.1,0.2c-0.1,0.3-0.1,0.6,0,0.9c0,0,0.2,1.1,0.3,2.5
		c2,7.2,6.8,11.6,6.8,11.6l-19.5,50.9c0,0,0,0,0,0c5-2.9,9.1-2.3,14.5-4.7c5.6-2.4,11.7-9.5,11.7-9.5l-31.7,82.4
		c-1.8,4.6-6.2,7.4-11,7.4c-1.4,0-2.8-0.3-4.2-0.8c-0.7-0.3-1.3-0.6-1.9-0.9c1.1,2.2,2.7,4.1,4.7,5.6c-1.5-0.1-3-0.4-4.4-1
		c-6.4-2.5-10.4-8.5-10.4-15c-0.1,5.3,2.5,10.4,6.9,13.5c1.1,0.8,2.3,1.4,3.6,1.9c1.9,0.7,3.9,1.1,5.9,1.1c6.5,0,12.7-3.9,15.2-10.4
		l43.9-114.3c0.9-2.2,5.8-6.6,5.8-6.6c0.2-0.2,0.4-0.4,0.6-0.6v-0.1c0-0.1,0.1-0.1,0.1-0.1c0.5-1.3-0.7-3.2-3.1-5.1
		c-2.9-2.4-7.7-5.1-13.3-7.3C408.8,176.7,403.2,175.5,399.3,175.5"/>
	
		<linearGradient id="SVGID_2_" gradientUnits="userSpaceOnUse" x1="-1.4088" y1="0.2143" x2="-0.6946" y2="0.2143" gradientTransform="matrix(31.1521 11.9794 -7.2896 51.194 413.3069 273.208)">
		<stop  offset="0" style="stop-color:#990000"/>
		<stop  offset="1" style="stop-color:#E80000"/>
	</linearGradient>
	<path class="st2" d="M377.3,294.2c-0.7,0-1.3-0.6-1.3-1.3s0.6-1.3,1.3-1.3c0.7,0,1.3,0.6,1.3,1.3S378,294.2,377.3,294.2
		 M375.5,275.6c-2,0-3.6-1.6-3.6-3.6c0-2,1.6-3.6,3.6-3.6c2,0,3.6,1.6,3.6,3.6C379.1,274,377.5,275.6,375.5,275.6 M388.2,263
		c-1.1,0-1.9-0.9-1.9-1.9c0-1.1,0.9-1.9,1.9-1.9c1.1,0,1.9,0.9,1.9,1.9C390.1,262.1,389.3,263,388.2,263 M408.1,229.2
		c0,0-6.1,7.1-11.7,9.5c-5.5,2.4-9.6,1.8-14.5,4.7c0,0,0,0,0,0l-3,7.8c0.2-0.4,0.6-0.6,1.1-0.6c0.7,0,1.3,0.6,1.3,1.3
		c0,0.7-0.6,1.3-1.3,1.3c-0.7,0-1.3-0.6-1.3-1.3c0-0.1,0-0.2,0-0.3l-5.6,14.7c0.1,0.4-0.1,1.1-0.6,1.6c0,0,0,0,0,0l-3.4,9
		c0.2-0.1,0.5-0.1,0.7-0.1c1.1,0,1.9,0.9,1.9,1.9c0,1.1-0.9,1.9-1.9,1.9c-0.8,0-1.4-0.4-1.7-1.1l-9.5,24.7
		c-1.6,4.5-1.2,9.2,0.8,13.1c0.6,0.4,1.2,0.7,1.9,0.9c1.4,0.5,2.8,0.8,4.2,0.8c4.7,0,9.1-2.9,11-7.4L408.1,229.2"/>
	<path id="XMLID_3_" class="st3" d="M423.5,189.1c0.6-1.6-3.9-4.9-10.2-7.3c-6.2-2.4-11.8-3-12.4-1.4c-0.6,1.6,3.9,4.9,10.2,7.3
		C417.3,190.1,422.8,190.7,423.5,189.1z"/>
	<path id="XMLID_8_" class="st4" d="M357.8,281.5c-0.1,0.1-0.2,0.1-0.2,0.2l-7.4,19.4c-0.7,2-1.1,4-1,5.9c0-1.9,0.4-3.7,1-5.6
		L357.8,281.5 M393.9,178.4c0,0,0.9,6-0.1,8.7l-34.5,90.1c0.1-0.1,0.2-0.1,0.3-0.2l34.6-89.9c0.6-1.6,0.6-4.3,0.4-6.3
		C394.3,180.1,394.1,179.3,393.9,178.4"/>
	
		<linearGradient id="SVGID_3_" gradientUnits="userSpaceOnUse" x1="-0.8594" y1="0.2661" x2="-0.1452" y2="0.2661" gradientTransform="matrix(51.4986 19.8035 -10.9826 92.8601 415.4748 240.3815)">
		<stop  offset="0" style="stop-color:#B2B2B2"/>
		<stop  offset="1" style="stop-color:#FFFFFF"/>
	</linearGradient>
	<path class="st5" d="M364.6,275.8c-2.1,1.9-4.4,3.9-6.8,5.7l-7.6,19.9c-0.7,1.8-1,3.7-1,5.6c0.1,6.5,4,12.5,10.4,15
		c1.4,0.6,2.9,0.9,4.4,1c-2-1.5-3.6-3.5-4.7-5.6c-4.8-2.9-7.2-9-5.2-14.3L364.6,275.8 M394.5,180.9c0.2,2,0.2,4.7-0.4,6.3
		l-34.6,89.9c2.4-1.8,4.7-3.7,6.7-5.5l8.2-21.2c0,0,2.5-4.1,7.5-7l19.5-50.9C401.3,192.5,396.6,188.1,394.5,180.9"/>
	
		<linearGradient id="SVGID_4_" gradientUnits="userSpaceOnUse" x1="-1.4088" y1="0.4374" x2="-0.6946" y2="0.4374" gradientTransform="matrix(31.1521 11.9794 -7.2896 51.194 413.3069 273.208)">
		<stop  offset="0" style="stop-color:#B84D4D"/>
		<stop  offset="1" style="stop-color:#EF4D4D"/>
	</linearGradient>
	<path class="st6" d="M372.4,268c-1.8,1.9-4.6,4.8-7.8,7.8l-10.5,27.3c-2,5.3,0.4,11.3,5.2,14.3c-2-3.9-2.4-8.7-0.8-13.1l9.5-24.7
		c-0.1-0.2-0.2-0.5-0.2-0.8c0-0.8,0.5-1.5,1.2-1.8L372.4,268 M381.8,243.4c-5,2.9-7.5,7-7.5,7l-8.2,21.2c2.2-2,4-3.7,5.1-4.8
		c0.6-0.6,1-0.8,1.3-0.8c0.2,0,0.4,0.1,0.4,0.4l5.6-14.7c0-0.1,0.1-0.3,0.1-0.4L381.8,243.4"/>
	
		<linearGradient id="SVGID_5_" gradientUnits="userSpaceOnUse" x1="-1.4088" y1="-0.1569" x2="-0.6946" y2="-0.1569" gradientTransform="matrix(31.1521 11.9794 -7.2896 51.194 413.3069 273.208)">
		<stop  offset="0" style="stop-color:#CC8080"/>
		<stop  offset="1" style="stop-color:#F48080"/>
	</linearGradient>
	<path class="st7" d="M379.9,250.6c-0.5,0-0.9,0.3-1.1,0.6l-0.1,0.4c0,0.1,0,0.2,0,0.3c0,0.7,0.6,1.3,1.3,1.3c0.7,0,1.3-0.6,1.3-1.3
		C381.2,251.2,380.6,250.6,379.9,250.6"/>
	
		<linearGradient id="SVGID_6_" gradientUnits="userSpaceOnUse" x1="-1.4087" y1="-0.157" x2="-0.6948" y2="-0.157" gradientTransform="matrix(31.1521 11.9794 -7.2896 51.194 413.3069 273.208)">
		<stop  offset="0" style="stop-color:#DCA6A6"/>
		<stop  offset="1" style="stop-color:#F7A6A6"/>
	</linearGradient>
	<path class="st8" d="M378.8,251.3c-0.1,0.1-0.1,0.2-0.1,0.4L378.8,251.3"/>
	
		<linearGradient id="SVGID_7_" gradientUnits="userSpaceOnUse" x1="-1.4088" y1="-4.611200e-002" x2="-0.6946" y2="-4.611200e-002" gradientTransform="matrix(31.1521 11.9794 -7.2896 51.194 413.3069 273.208)">
		<stop  offset="0" style="stop-color:#CC8080"/>
		<stop  offset="1" style="stop-color:#F48080"/>
	</linearGradient>
	<path class="st9" d="M388.2,259.1c-1.1,0-1.9,0.9-1.9,1.9c0,1.1,0.9,1.9,1.9,1.9c1.1,0,1.9-0.9,1.9-1.9
		C390.1,260,389.3,259.1,388.2,259.1"/>
	
		<linearGradient id="SVGID_8_" gradientUnits="userSpaceOnUse" x1="-1.4088" y1="0.2469" x2="-0.6946" y2="0.2469" gradientTransform="matrix(31.1521 11.9794 -7.2896 51.194 413.3069 273.208)">
		<stop  offset="0" style="stop-color:#CC8080"/>
		<stop  offset="1" style="stop-color:#F48080"/>
	</linearGradient>
	<path class="st10" d="M375.5,268.4c-2,0-3.6,1.6-3.6,3.6c0,2,1.6,3.6,3.6,3.6c2,0,3.6-1.6,3.6-3.6
		C379.1,270,377.5,268.4,375.5,268.4"/>
	
		<linearGradient id="SVGID_9_" gradientUnits="userSpaceOnUse" x1="-1.4088" y1="0.412" x2="-0.6946" y2="0.412" gradientTransform="matrix(31.1521 11.9794 -7.2896 51.194 413.3069 273.208)">
		<stop  offset="0" style="stop-color:#CC8080"/>
		<stop  offset="1" style="stop-color:#F48080"/>
	</linearGradient>
	<path class="st11" d="M369.7,276.8c-0.3,0-0.5,0.1-0.7,0.1l-1,2.6c0.3,0.6,1,1.1,1.7,1.1c1.1,0,1.9-0.9,1.9-1.9
		C371.6,277.6,370.8,276.8,369.7,276.8"/>
	
		<linearGradient id="SVGID_10_" gradientUnits="userSpaceOnUse" x1="-1.4088" y1="0.412" x2="-0.6946" y2="0.412" gradientTransform="matrix(31.1521 11.9794 -7.2896 51.194 413.3069 273.208)">
		<stop  offset="0" style="stop-color:#DCA6A6"/>
		<stop  offset="1" style="stop-color:#F7A6A6"/>
	</linearGradient>
	<path class="st12" d="M369,276.9c-0.7,0.3-1.2,1-1.2,1.8c0,0.3,0.1,0.6,0.2,0.8L369,276.9"/>
	
		<linearGradient id="SVGID_11_" gradientUnits="userSpaceOnUse" x1="-1.4088" y1="0.6213" x2="-0.6946" y2="0.6213" gradientTransform="matrix(31.1521 11.9794 -7.2896 51.194 413.3069 273.208)">
		<stop  offset="0" style="stop-color:#CC8080"/>
		<stop  offset="1" style="stop-color:#F48080"/>
	</linearGradient>
	<path class="st13" d="M377.3,291.6c-0.7,0-1.3,0.6-1.3,1.3s0.6,1.3,1.3,1.3c0.7,0,1.3-0.6,1.3-1.3S378,291.6,377.3,291.6"/>
	<path id="XMLID_11_" class="st0" d="M148,249.9c-0.1,0-0.2,0-0.2,0c-0.5,0-1.4,0.9-0.6,1.3c1.1,0.4,1.6,1.3,1.6,2.6
		c-0.9,5.3-7.6,11.4-10.1,13.4c-0.5,0.5,0.1,1.7,0.6,1.7c0.1,0,0.2,0,0.3-0.1c1.4-1.1,4.4-3.5,6.8-6.6c-4,8.9-11.8,20.4-14.8,24.5
		c-11.7,16.1-29.4,31-41.6,31c-9.8,0-18-6.6-19.8-16.3c-0.1-0.5-0.5-0.9-0.8-0.9c-0.3,0-0.6,0.3-0.5,1c2.2,13.3,12.5,18.5,24.9,18.5
		c13.6,0,29.6-9.8,38.4-19.9c14.3-16.3,23.5-35,21-45.6C152.1,250.7,149.6,249.9,148,249.9 M302.2,238.2c-0.6,0-1.2,0.1-1.9,0.3
		c-2.7,0.8-5.3,6-7.3,10.4c-6,8.9-16,21-23,27.4c-2.9,2.5-5.7,4.2-7.2,4.2c-1.6,0-1.5-2.1,2.2-7.4c2.9-4,6.5-8.2,8.6-12.5
		c3.4-7.4-0.5-12-6.1-12c-2.5,0-5.3,0.9-8,2.9c-4.9,3.8-11.5,11.5-16.8,15.8c-1.1,0.9-1.1,2.1-0.5,2.1c0.2,0,0.5-0.1,0.8-0.4
		c4.1-3.3,11.4-11,17.7-15.5c1.9-1.4,3.4-2,4.3-2c1.7,0,1.9,1.8-0.1,3.9c-4.1,4.8-11.4,13.1-13.3,18.3c-2.6,7.9,0.5,11.4,5.7,11.4
		c7.1,0,17.8-11.1,24.9-19.9c2.4-3,4.9-6.5,7.1-9.8c-6.2,12-12.7,24.2-20.7,35.2c-11.4,15.5-25.7,27.2-39.2,27.2
		c-9.8,0-18.2-6.6-20-16.3c-0.1-0.5-0.4-0.9-0.8-0.9c-0.3,0-0.6,0.3-0.5,1c2.2,13.3,12.5,18.5,24.9,18.5c13.6,0,26.7-7.9,35.9-17.6
		c18.5-19.5,20.7-41.5,26.4-53.8c2.3-4.8,4.5-5.7,6.3-5.7c0.3,0,0.6,0,0.9,0.1c0.3,0,0.5,0,0.7,0c2.2,0,3-1.3,2.6-2.6
		C305.9,239.5,304.4,238.2,302.2,238.2 M159.9,234.4c-1.8,0-3.9,1-5.5,2.8c-2.5,2.7-2.9,6.1-0.9,7.6c0.6,0.5,1.5,0.8,2.3,0.8
		c1.8,0,3.9-1,5.4-2.7c2.5-2.7,2.9-6.2,0.9-7.7C161.6,234.7,160.8,234.4,159.9,234.4 M339.2,213.4c-4.8,0.1-13.5,3.5-17.5,6.6
		c-0.7,0.7-0.6,1.1-0.1,1.1c0.2,0,0.4-0.1,0.8-0.2c0.8-0.3,1.7-0.8,2.6-1.1c0.9-0.5,1.5-0.7,1.9-0.7c2,0,0.6,3.7-0.2,5.3
		c-5.4,9.5-15,22.7-20.1,29.4c-4.1,5.5-9.2,11.1-13.1,14.2c-1.1,0.9-1,1.8-0.2,1.8c0.3,0,0.7-0.1,1.1-0.4c1.4-0.9,3.5-3,5.8-5.4
		c-4.3,8.5-7.8,20.5,3.5,22c0.6,0.1,1.2,0.1,1.8,0.1c9.2,0,19.7-9,26.7-15.8c0.8-0.8,1.7-1.7,2.6-2.6c0.2-0.2,0.4-0.4,0.6-0.6
		c-4.3,8.5-7.8,20.5,3.5,22c0.6,0.1,1.2,0.1,1.8,0.1c5.5,0,11.5-3.3,16.9-7.3l1.7-4.5c-4,3-8.2,5.7-11.9,7.1
		c-2.3,0.9-4.1,1.3-5.5,1.3c-12.4,0,12.2-32.9,14.5-35.8c5.6-7.1,18.1-19.3,21.9-25.3c2.7-4.6,2.6-8.2-3.8-8.2
		c-4.8,0.1-13.5,3.5-17.5,6.6c-0.7,0.7-0.6,1.1-0.1,1.1c0.2,0,0.4-0.1,0.8-0.2c0.8-0.3,1.7-0.8,2.6-1.1c0.9-0.5,1.5-0.7,1.9-0.7
		c2,0,0.6,3.7-0.2,5.3c-5.4,9.5-15,22.7-20.1,29.4c-2.4,3.3-5.1,6.5-7.8,9.2c-4.8,4.6-14.5,12.8-21.8,15.5c-2.3,0.9-4.1,1.3-5.5,1.3
		c-12.4,0,12.2-32.9,14.5-35.8c5.6-7,18-19.1,21.8-25.2C345.7,217,345.6,213.4,339.2,213.4 M216.3,269.6c-1.2,0-2.1-0.2-2.8-0.6
		l-0.6-0.4c-0.4-0.6-0.8-1.3-1.1-1.9c2.5-3.1,5.3-5.8,8.2-8.3c4.9-4.4,8.8-6,11.5-6c5.6,0,6.1,7-0.2,11.8
		C227.4,267.2,220.6,269.6,216.3,269.6 M261,203.4c-5.1,0-12.2,2.9-20,10c-15.3,14.1-25.3,28.8-34,47.9c-3,3.6-5.2,6.6-7.9,8.9
		c-0.4,0.3-0.6,0.6-0.8,0.9c-7.5,6.4-19.2,15.1-26.6,15.1c-0.1,0-0.2,0-0.3,0c-5,0-7.1-3.9-6.2-8.8c1.4-7.9,9.6-17.2,16.6-20.4
		c1.7-0.8,3.3-1.1,4.7-1.1c5.8,0,7.5,6.3-2.2,11.4c-4.6,2.3-10,3.6-12.2,3.6c-2.6,0-2.4,1.1-0.1,1.1c0.2,0,0.3,0,0.5,0
		c3.7,0,9.2-1.5,12.9-3.2c12.2-5.8,13-16.7-0.3-17.1c-0.3,0-0.6,0-0.9,0c-14.2,0-30.8,12-30.7,27.2c0.1,7,5.7,10.7,13.3,10.7
		c12.8-0.1,24.1-9.8,33.4-18.3c1.4-1.1,2.6-2.3,3.9-3.6c-3.3,8.2-4.9,15.9-4.1,21.6c0.5,4.1,2.9,6,4.7,7.6c0.1,0.1,0.2,0.1,0.3,0.1
		c0.3,0,0.7-0.3,0.3-0.9c-2.7-3.2-1.9-12.8,1.8-22.1c2.7,5.4,12,11.9,22.6,11.9c1.8,0,3.6-0.2,5.5-0.6c3.8-0.9,6.8-3,6.8-6.3
		c0-0.2-0.2-0.3-0.3-0.3c-0.2,0-0.3,0.1-0.3,0.3c0,1.9-2.2,3.6-4.7,3.9c-0.4,0.1-0.7,0.1-1.1,0.1c-6.1,0-16.6-6.4-21.7-13
		c1.3,0.5,2.9,0.7,4.7,0.7c6.2,0,14.3-2.6,18.6-5.8c5.2-3.8,7.3-7.9,7.6-11.2c0.5-4-2.6-6.8-7.5-6.8c-1.9,0-4,0.4-6.4,1.3
		c-5.4,2.2-11.9,7-18.7,15.9c7.1-11.7,21.2-30.9,34.9-43.1c7.5-6.6,13.6-9.7,16.6-9.7c3.8,0,3.1,4.8-5.2,13.5
		c-6.2,6.5-17.9,14.9-25.9,18.5c-2,0.9-1.6,1.9-0.5,1.9c0.3,0,0.6-0.1,1-0.2c8.6-3.8,20-11.5,26.9-18
		C273.6,214.2,270.9,203.4,261,203.4"/>
	
		<linearGradient id="SVGID_12_" gradientUnits="userSpaceOnUse" x1="-1.4088" y1="0.1768" x2="-0.6946" y2="0.1768" gradientTransform="matrix(31.1521 11.9794 -7.2896 51.194 413.3069 273.208)">
		<stop  offset="0" style="stop-color:#890000"/>
		<stop  offset="1" style="stop-color:#D00000"/>
	</linearGradient>
	<path class="st14" d="M373.1,266.3l-0.6,1.6c0,0,0,0,0,0C373,267.4,373.2,266.7,373.1,266.3"/>
	<path id="XMLID_22_" class="st0" d="M359.6,277.1c-0.1,0.1-0.2,0.1-0.3,0.2l-1.7,4.5c0.1-0.1,0.2-0.1,0.2-0.2L359.6,277.1"/>
	
		<linearGradient id="SVGID_13_" gradientUnits="userSpaceOnUse" x1="-0.8594" y1="0.5846" x2="-0.1452" y2="0.5846" gradientTransform="matrix(51.4986 19.8035 -10.9826 92.8601 415.4748 240.3815)">
		<stop  offset="0" style="stop-color:#A0A0A0"/>
		<stop  offset="1" style="stop-color:#E5E5E5"/>
	</linearGradient>
	<path class="st15" d="M366.2,271.6c-2,1.7-4.2,3.6-6.7,5.5l-1.7,4.5c2.4-1.8,4.7-3.8,6.8-5.7L366.2,271.6"/>
	
		<linearGradient id="SVGID_14_" gradientUnits="userSpaceOnUse" x1="-1.4088" y1="0.275" x2="-0.6946" y2="0.275" gradientTransform="matrix(31.1521 11.9794 -7.2896 51.194 413.3069 273.208)">
		<stop  offset="0" style="stop-color:#A54545"/>
		<stop  offset="1" style="stop-color:#D74545"/>
	</linearGradient>
	<path class="st16" d="M372.6,266c-0.3,0-0.7,0.2-1.3,0.8c-1,1.1-2.8,2.8-5.1,4.8l-1.6,4.2c3.3-3,6-5.9,7.8-7.8l0.6-1.6
		C373,266.1,372.9,266,372.6,266"/>
	
		<linearGradient id="SVGID_15_" gradientUnits="userSpaceOnUse" x1="0.1632" y1="2.876454e-002" x2="0.8775" y2="2.876454e-002" gradientTransform="matrix(0 -163.3988 435.0564 0 210.5673 345.5333)">
		<stop  offset="0" style="stop-color:#1A1A1A"/>
		<stop  offset="0.4026" style="stop-color:#4A4A4C"/>
		<stop  offset="1" style="stop-color:#333333"/>
	</linearGradient>
	<path class="st17" d="M152.2,243.7c1.9,1.6,5.4,0.6,7.8-1.9c2.5-2.7,2.9-6.2,0.9-7.7c-1.9-1.6-5.4-0.6-7.8,2.1
		C150.7,238.7,150.3,242.1,152.2,243.7z M146.5,248.7c-0.5,0-1.4,0.9-0.6,1.3c1.1,0.4,1.6,1.3,1.6,2.6c-0.9,5.3-7.6,11.4-10.1,13.4
		c-0.6,0.6,0.3,2.1,0.9,1.6c1.4-1.1,4.4-3.5,6.8-6.6c-4,8.9-11.8,20.4-14.8,24.5c-11.7,16.1-29.4,31-41.6,31
		c-9.8,0-18-6.6-19.8-16.3c-0.1-1.1-1.6-1.3-1.3,0.1c2.2,13.3,12.5,18.5,24.9,18.5c13.6,0,29.6-9.8,38.4-19.9
		c14.3-16.3,23.5-35,21-45.6C150.8,249.2,148.1,248.6,146.5,248.7z M234.1,284.2c3.8-0.9,6.8-3,6.8-6.3c0-0.4-0.6-0.4-0.6,0
		c0,1.9-2.2,3.6-4.7,3.9c-5.8,0.9-17.4-5.9-22.8-12.9c5.8,2.2,17.8-1,23.4-5c5.2-3.8,7.3-7.9,7.6-11.2c0.6-5.5-5.4-8.8-13.9-5.5
		c-5.4,2.2-11.9,7-18.7,15.9c7.1-11.7,21.2-30.9,34.9-43.1c16.8-14.9,26.4-12,11.4,3.8c-6.2,6.5-17.9,14.9-25.9,18.5
		c-2.5,1.1-1.3,2.5,0.5,1.7c8.6-3.8,20-11.5,26.9-18c20.4-19.5,3.4-34.3-19.2-13.6c-15.3,14-25.3,28.8-34,47.9
		c-3,3.6-5.2,6.6-7.9,8.9c-0.4,0.3-0.6,0.6-0.8,0.9c-7.5,6.4-19.2,15.1-26.6,15.1c-5.2,0.1-7.4-3.8-6.5-8.8
		c1.4-7.9,9.6-17.2,16.6-20.4c9.1-4.1,14.4,3.9,2.5,10.3c-4.6,2.3-10,3.6-12.2,3.6c-2.6,0-2.4,1.1-0.1,1.1c3.6,0.1,9.5-1.4,13.3-3.2
		c12.2-5.8,13-16.7-0.3-17.1c-14.4-0.5-31.7,11.7-31.5,27.2c0.1,7,5.7,10.7,13.3,10.7c12.8-0.1,24.1-9.8,33.4-18.3
		c1.4-1.1,2.6-2.3,3.9-3.6c-3.3,8.2-4.9,15.9-4.1,21.6c0.5,4.1,2.9,6,4.7,7.6c0.4,0.3,1.1,0,0.6-0.8c-2.7-3.2-1.9-12.8,1.8-22.1
		C209.2,279.1,221.4,287,234.1,284.2z M218.7,257.2c14.9-13.3,20.7-1.4,11.3,5.8c-4.9,3.8-14.7,6.6-17.8,4.8l-0.6-0.4
		c-0.4-0.6-0.8-1.3-1.1-1.9C213,262.5,215.9,259.7,218.7,257.2z M301.6,242.1c6,0.6,3.5-6.6-2.6-4.8c-2.7,0.8-5.3,6-7.3,10.4
		c-6,8.9-16,21-23,27.4c-6.2,5.3-11.9,6.8-4.9-3.2c2.9-4,6.5-8.2,8.6-12.5c4.9-10.7-5.6-15.5-14-9c-4.9,3.8-11.5,11.5-16.8,15.8
		c-1.4,1.1-1.1,2.8,0.4,1.7c4.1-3.3,11.4-11,17.7-15.5c5.2-4,7.3-1.4,4.3,1.9c-4.1,4.8-11.4,13.1-13.3,18.3
		c-2.6,7.9,0.5,11.4,5.7,11.4c7.1,0,17.8-11.1,24.9-19.9c2.4-3,4.9-6.5,7.1-9.8c-6.2,12-12.7,24.2-20.7,35.2
		c-11.4,15.5-25.7,27.2-39.2,27.2c-9.8,0-18.2-6.6-20-16.3c-0.1-1.1-1.4-1.3-1.3,0.1c2.2,13.3,12.5,18.5,24.9,18.5
		c13.6,0,26.7-7.9,35.9-17.6c18.5-19.5,20.7-41.5,26.4-53.8C297.2,242.1,299.6,241.8,301.6,242.1z M377,223.3
		c2.7-4.6,2.6-8.2-3.8-8.2c-4.8,0.1-13.5,3.5-17.5,6.6c-0.9,0.9-0.5,1.4,0.6,0.9c0.8-0.3,1.7-0.8,2.6-1.1c4.6-2.5,2.7,2.7,1.7,4.6
		c-5.4,9.5-15,22.7-20.1,29.4c-2.4,3.3-5.1,6.5-7.8,9.2c-4.8,4.6-14.5,12.8-21.8,15.5c-23.6,8.8,6.5-31.3,9-34.5
		c5.6-7,18-19.1,21.8-25.2c2.7-4.6,2.6-8.2-3.8-8.2c-4.8,0.1-13.5,3.5-17.5,6.6c-0.9,0.9-0.5,1.4,0.6,0.9c0.8-0.3,1.7-0.8,2.6-1.1
		c4.6-2.5,2.7,2.7,1.7,4.6c-5.4,9.5-15,22.7-20.1,29.4c-4.1,5.5-9.2,11.1-13.1,14.2c-1.6,1.3-0.6,2.5,0.9,1.4c1.4-0.9,3.5-3,5.8-5.4
		c-4.3,8.5-7.8,20.5,3.5,22c9.6,1.3,21-8.5,28.4-15.7c0.8-0.8,1.7-1.7,2.6-2.6c0.2-0.2,0.4-0.4,0.6-0.6c-4.3,8.5-7.8,20.5,3.5,22
		c12.3,1.7,27.7-14.9,33.6-21c1.1-1.1,0.8-3.1-1.1-1.1c-3.5,3.6-15.3,14.4-23.9,17.6c-23.6,8.8,6.5-31.3,9-34.5
		C360.8,241.4,373.2,229.3,377,223.3z"/>
</g>
</svg>
