<svg id="svg" xmlns="http://www.w3.org/2000/svg" xmlns:xlink="http://www.w3.org/1999/xlink" width="400" height="400" viewBox="0, 0, 400,400"><g id="svgg"><path id="path0" d="M127.762 118.671 C 126.921 120.298,127.055 121.238,128.295 122.396 C 129.731 123.738,129.690 124.552,128.111 126.083 C 126.263 127.874,126.396 129.770,128.370 129.770 C 133.609 129.770,135.037 118.062,129.845 117.676 C 128.489 117.575,128.276 117.676,127.762 118.671 M147.103 127.542 C 141.815 129.367,138.976 136.447,140.045 145.144 C 140.919 152.257,142.448 155.143,149.008 162.064 C 155.803 169.234,157.516 174.482,155.395 181.625 C 153.151 189.183,143.878 190.451,143.058 183.313 C 142.705 180.240,138.986 180.474,138.986 183.569 C 138.986 194.875,156.384 194.789,159.834 183.466 C 162.782 173.793,161.067 167.814,153.024 159.715 C 144.795 151.431,142.148 142.515,145.599 134.713 C 147.926 129.452,155.935 129.921,155.943 135.318 C 155.946 136.910,157.533 137.642,159.417 136.919 C 160.271 136.591,160.172 133.676,159.241 131.753 C 157.138 127.409,152.326 125.739,147.103 127.542 M50.968 127.802 C 50.072 128.163,50.321 190.474,51.220 190.955 C 52.134 191.444,65.610 191.463,66.888 190.977 C 67.708 190.665,67.834 190.398,67.834 188.980 C 67.834 186.903,68.087 186.967,60.737 187.199 L 54.562 187.393 54.562 157.699 C 54.562 130.962,54.504 127.983,53.979 127.781 C 53.301 127.521,51.635 127.533,50.968 127.802 M74.978 127.812 C 73.767 128.049,73.733 128.967,73.733 161.118 C 73.733 187.925,73.791 190.911,74.316 191.113 C 75.093 191.411,89.016 191.400,91.210 191.100 L 92.938 190.863 92.829 188.980 L 92.719 187.097 85.721 186.981 C 81.873 186.917,78.638 186.779,78.532 186.674 C 77.877 186.019,78.100 164.421,78.762 164.343 C 79.139 164.299,81.521 164.257,84.055 164.251 L 88.664 164.240 88.664 162.396 L 88.664 160.553 86.083 160.251 C 84.664 160.085,82.333 160.016,80.904 160.099 L 78.305 160.248 78.231 149.341 C 78.190 143.342,78.258 136.982,78.380 135.207 L 78.604 131.982 84.924 131.977 C 93.012 131.970,92.903 132.000,92.903 129.766 C 92.903 128.500,92.739 127.942,92.320 127.781 C 91.682 127.536,76.242 127.563,74.978 127.812 M98.802 129.954 L 98.802 131.982 103.041 131.982 L 107.281 131.982 107.281 161.217 C 107.281 183.463,107.387 190.557,107.724 190.894 C 108.213 191.384,110.170 191.481,110.850 191.048 C 111.247 190.796,111.600 168.652,111.686 138.537 L 111.705 132.004 116.221 131.901 L 120.737 131.797 120.849 129.862 L 120.960 127.926 109.881 127.926 L 98.802 127.926 98.802 129.954 M192.709 160.864 C 186.591 162.247,186.458 162.709,184.914 187.940 C 184.241 198.948,183.627 208.010,183.550 208.079 C 183.473 208.148,181.917 207.896,180.092 207.518 C 169.307 205.289,162.579 209.583,157.423 221.984 C 156.549 224.086,154.217 229.290,152.240 233.548 C 148.630 241.323,146.453 246.163,140.882 258.802 C 139.229 262.553,137.546 266.120,137.143 266.728 L 136.410 267.834 136.408 264.332 C 136.404 258.707,137.772 242.463,139.016 233.364 C 139.223 231.843,140.056 226.215,140.867 220.857 C 143.518 203.325,143.119 202.212,134.194 202.212 C 126.532 202.212,124.868 203.761,123.505 212.166 C 123.015 215.187,121.483 218.566,116.198 228.278 C 114.137 232.066,109.707 240.525,106.353 247.076 C 100.076 259.339,99.363 260.592,98.917 260.146 C 98.146 259.375,100.389 237.732,102.515 225.438 C 106.132 204.515,106.085 204.292,97.913 203.939 C 88.935 203.550,86.913 205.453,86.064 215.089 L 85.574 220.645 82.586 228.571 C 70.572 260.442,59.868 274.899,52.731 268.894 C 43.388 261.032,50.048 214.165,60.845 211.794 C 63.469 211.218,63.600 213.766,61.321 221.012 C 59.085 228.125,58.995 230.415,60.955 230.415 C 65.488 230.415,70.324 214.315,67.600 208.291 C 65.072 202.701,55.440 199.455,49.769 202.281 C 39.072 207.612,30.260 227.735,30.237 246.886 C 30.210 269.091,39.309 281.106,55.680 280.483 C 65.035 280.127,73.194 270.419,81.589 249.657 L 83.572 244.753 83.823 249.440 C 84.541 262.885,88.648 270.046,95.638 270.046 C 102.099 270.046,102.789 269.129,116.745 242.028 C 119.878 235.945,122.357 231.300,122.254 231.705 C 121.775 233.598,121.212 248.949,121.402 254.908 C 121.898 270.400,126.048 278.894,133.121 278.894 C 138.820 278.894,140.700 276.460,148.575 258.888 C 150.053 255.589,151.318 252.946,151.386 253.014 C 151.454 253.082,151.691 254.440,151.912 256.031 C 152.938 263.406,155.882 266.429,161.078 265.443 C 166.072 264.496,167.986 261.853,178.036 242.028 L 182.334 233.548 182.319 247.926 C 182.293 272.668,186.517 281.943,196.335 278.702 C 199.928 277.517,202.011 274.407,207.939 261.382 C 210.200 256.415,212.095 252.303,212.150 252.246 C 212.206 252.189,212.444 253.647,212.680 255.486 C 213.686 263.335,216.577 266.454,221.908 265.443 C 226.902 264.496,228.815 261.853,238.866 242.028 L 243.164 233.548 243.149 247.926 C 243.123 272.668,247.346 281.943,257.165 278.702 C 261.413 277.300,262.697 275.087,274.120 249.456 L 279.025 238.451 278.981 253.695 C 278.902 281.497,282.777 291.754,292.610 289.765 C 299.230 288.427,301.949 284.334,313.771 257.913 C 315.428 254.210,315.940 253.350,316.077 254.042 C 316.174 254.531,316.453 256.175,316.697 257.696 C 319.021 272.163,327.551 280.228,340.645 280.337 C 352.873 280.438,361.730 267.210,374.169 230.267 C 378.258 218.123,378.304 217.898,376.909 216.801 C 374.221 214.687,373.043 215.734,370.717 222.304 C 358.675 256.322,347.446 273.124,339.328 269.272 C 335.658 267.530,333.263 258.392,333.782 248.111 C 334.169 240.456,334.098 240.667,336.536 239.885 C 347.893 236.243,357.376 218.130,353.113 208.221 C 350.443 202.015,339.990 199.002,334.270 202.791 C 327.850 207.043,321.220 217.625,318.349 228.203 C 317.413 231.651,314.585 238.143,309.118 249.401 C 307.148 253.456,303.726 260.672,301.513 265.436 C 294.906 279.659,294.461 279.890,294.247 269.204 C 294.032 258.465,297.430 210.476,300.676 178.433 C 302.299 162.410,301.556 160.581,293.422 160.567 C 287.319 160.557,284.128 163.021,283.140 168.511 C 282.798 170.412,281.456 192.073,280.505 211.060 L 280.061 219.908 276.849 226.730 C 272.222 236.559,268.187 245.440,264.707 253.456 C 261.203 261.526,258.505 267.193,258.027 267.488 C 257.263 267.961,257.730 259.625,260.290 227.097 C 262.113 203.942,263.760 185.062,264.710 176.438 C 266.179 163.107,265.672 161.470,259.813 160.639 C 253.331 159.719,248.728 161.919,247.359 166.593 C 247.144 167.326,246.417 176.933,245.744 187.940 C 245.070 198.948,244.456 208.010,244.379 208.079 C 244.302 208.148,242.747 207.896,240.922 207.518 C 229.980 205.257,224.087 209.063,218.045 222.294 C 216.792 225.037,214.148 230.765,212.169 235.023 C 210.189 239.281,206.753 246.912,204.531 251.982 C 197.384 268.294,196.866 269.167,196.866 264.915 C 196.866 257.916,201.902 194.402,203.881 176.438 C 205.118 165.203,204.810 162.757,201.982 161.375 C 200.208 160.507,195.448 160.245,192.709 160.864 M348.387 214.444 C 348.387 221.368,343.496 229.874,337.755 232.934 L 335.580 234.094 336.286 231.056 C 338.772 220.362,342.771 212.628,346.312 211.666 C 348.010 211.205,348.387 211.710,348.387 214.444 M182.857 217.795 C 182.857 218.320,173.988 237.889,171.968 241.819 C 166.865 251.750,164.771 251.742,166.786 241.799 C 169.930 226.283,175.210 217.556,181.475 217.520 C 182.235 217.515,182.857 217.639,182.857 217.795 M243.687 217.795 C 243.687 218.320,234.817 237.889,232.798 241.819 C 227.695 251.750,225.600 251.742,227.615 241.799 C 230.760 226.283,236.039 217.556,242.304 217.520 C 243.065 217.515,243.687 217.639,243.687 217.795 " stroke="none" fill="#000000" fill-rule="evenodd"></path></g></svg>