<svg id="svg" xmlns="http://www.w3.org/2000/svg" xmlns:xlink="http://www.w3.org/1999/xlink" width="400" height="400" viewBox="0, 0, 400,400"><g id="svgg"><path id="path0" d="M228.940 110.963 C 224.175 111.512,219.779 112.172,219.171 112.432 C 218.562 112.691,217.733 113.025,217.327 113.174 C 216.922 113.323,215.346 114.076,213.825 114.846 C 212.304 115.616,210.688 116.428,210.233 116.649 C 209.779 116.870,209.405 117.175,209.404 117.327 C 209.402 117.479,209.152 117.604,208.848 117.604 C 208.544 117.604,208.295 117.770,208.295 117.972 C 208.295 118.175,208.117 118.341,207.900 118.341 C 207.683 118.341,207.290 118.548,207.027 118.802 C 206.763 119.055,205.674 120.009,204.605 120.922 C 203.535 121.834,202.513 122.747,202.333 122.949 C 200.106 125.450,199.294 126.480,198.626 127.650 C 197.783 129.127,197.337 129.359,197.005 128.493 C 196.891 128.197,196.501 127.860,196.139 127.745 C 195.776 127.630,195.138 127.240,194.722 126.879 C 194.305 126.517,193.513 125.900,192.963 125.507 C 192.412 125.114,191.689 124.537,191.357 124.224 C 191.024 123.911,190.220 123.435,189.569 123.165 C 188.919 122.896,188.387 122.546,188.387 122.389 C 188.387 122.231,187.558 121.803,186.544 121.439 C 185.530 121.074,184.700 120.643,184.700 120.480 C 184.700 120.317,184.576 120.211,184.424 120.244 C 184.272 120.277,183.695 120.116,183.142 119.887 C 179.911 118.551,172.687 117.373,168.111 117.436 C 163.763 117.496,158.752 117.995,158.499 118.393 C 158.383 118.576,157.180 118.829,155.826 118.955 C 154.472 119.082,153.364 119.312,153.364 119.468 C 153.364 119.624,152.701 119.863,151.891 120.000 C 151.081 120.137,150.325 120.400,150.211 120.585 C 150.096 120.770,149.607 120.922,149.124 120.922 C 148.641 120.922,148.144 121.088,148.018 121.290 C 147.893 121.493,147.386 121.659,146.891 121.659 C 146.396 121.659,145.991 121.825,145.991 122.028 C 145.991 122.230,145.659 122.396,145.253 122.396 C 144.848 122.396,144.516 122.562,144.516 122.765 C 144.516 122.968,144.101 123.134,143.594 123.134 C 143.088 123.134,142.673 123.300,142.673 123.502 C 142.673 123.705,142.341 123.871,141.935 123.871 C 141.530 123.871,141.198 124.037,141.198 124.240 C 141.198 124.442,140.866 124.608,140.461 124.608 C 140.055 124.608,139.724 124.734,139.724 124.887 C 139.724 125.040,139.184 125.400,138.525 125.687 C 137.866 125.974,137.244 126.304,137.143 126.422 C 136.979 126.612,135.985 127.189,133.644 128.452 C 133.241 128.670,132.641 129.138,132.311 129.493 C 131.981 129.848,131.599 130.138,131.461 130.138 C 131.324 130.138,130.765 130.553,130.218 131.060 C 129.671 131.567,129.005 131.982,128.738 131.982 C 128.470 131.982,128.332 132.112,128.430 132.270 C 128.528 132.429,128.091 132.969,127.458 133.469 C 126.825 133.969,125.669 135.000,124.890 135.760 C 124.110 136.521,123.313 137.143,123.119 137.143 C 122.924 137.143,122.764 137.267,122.763 137.419 C 122.762 137.571,120.979 139.544,118.800 141.803 C 115.238 145.496,113.556 147.302,107.048 154.427 C 106.007 155.566,104.763 156.963,104.283 157.533 C 103.803 158.102,102.498 159.546,101.382 160.742 C 100.267 161.938,98.359 164.025,97.143 165.379 C 88.356 175.158,72.230 191.705,71.486 191.705 C 71.278 191.705,71.211 191.871,71.336 192.074 C 71.462 192.276,71.424 192.442,71.252 192.442 C 71.080 192.442,70.082 193.230,69.034 194.194 C 67.986 195.157,66.434 196.525,65.586 197.235 C 64.738 197.945,63.694 198.861,63.266 199.272 C 62.838 199.682,61.825 200.511,61.014 201.113 C 60.203 201.715,59.456 202.293,59.355 202.396 C 58.805 202.959,56.410 204.608,56.143 204.608 C 55.971 204.608,55.592 204.940,55.300 205.346 C 55.007 205.751,54.556 206.083,54.296 206.083 C 54.037 206.083,53.825 206.249,53.825 206.452 C 53.825 206.654,53.576 206.820,53.272 206.820 C 52.968 206.820,52.719 206.959,52.719 207.130 C 52.719 207.300,52.057 207.756,51.248 208.143 C 50.440 208.531,49.776 208.972,49.774 209.124 C 49.771 209.276,49.438 209.401,49.032 209.401 C 48.627 209.401,48.295 209.567,48.295 209.770 C 48.295 209.972,48.046 210.138,47.742 210.138 C 47.438 210.138,47.189 210.273,47.189 210.438 C 47.189 210.603,46.608 210.966,45.899 211.244 C 45.189 211.523,44.608 211.885,44.608 212.050 C 44.608 212.215,44.276 212.350,43.871 212.350 C 43.465 212.350,43.134 212.476,43.134 212.629 C 43.134 212.782,42.594 213.127,41.935 213.396 C 41.276 213.665,39.760 214.369,38.566 214.961 C 37.371 215.553,36.086 216.037,35.709 216.037 C 34.786 216.037,34.829 217.161,35.760 217.405 C 36.166 217.511,36.498 217.711,36.498 217.850 C 36.498 217.989,37.327 218.401,38.341 218.766 C 39.355 219.131,40.184 219.596,40.184 219.800 C 40.184 220.004,40.433 220.076,40.737 219.959 C 41.041 219.842,41.290 219.881,41.290 220.045 C 41.290 220.210,41.954 220.543,42.765 220.786 C 43.576 221.029,44.240 221.382,44.240 221.570 C 44.240 221.758,44.488 221.817,44.793 221.700 C 45.097 221.583,45.346 221.659,45.346 221.867 C 45.346 222.076,45.926 222.439,46.636 222.673 C 47.346 222.907,47.926 223.246,47.926 223.427 C 47.926 223.608,48.175 223.660,48.479 223.543 C 48.783 223.427,49.032 223.482,49.032 223.665 C 49.032 223.849,49.654 224.222,50.415 224.495 C 51.175 224.767,52.193 225.298,52.676 225.675 C 53.160 226.051,53.770 226.359,54.033 226.359 C 54.295 226.359,54.764 226.614,55.076 226.926 C 55.387 227.237,55.730 227.488,55.837 227.483 C 56.225 227.467,58.805 228.763,58.925 229.035 C 58.994 229.188,59.201 229.220,59.386 229.105 C 59.572 228.990,59.724 229.059,59.724 229.258 C 59.724 229.457,60.304 229.812,61.014 230.046 C 61.724 230.280,62.304 230.614,62.304 230.788 C 62.304 230.962,62.876 231.311,63.575 231.564 C 64.274 231.817,64.744 232.187,64.620 232.388 C 64.488 232.602,64.648 232.655,65.009 232.517 C 65.346 232.387,65.622 232.429,65.622 232.610 C 65.622 232.790,66.203 233.130,66.912 233.364 C 67.622 233.598,68.203 233.923,68.203 234.085 C 68.203 234.248,68.700 234.587,69.309 234.839 C 69.917 235.091,70.415 235.452,70.415 235.643 C 70.415 235.833,70.581 235.886,70.783 235.760 C 70.986 235.635,71.152 235.708,71.152 235.923 C 71.152 236.138,71.359 236.316,71.613 236.320 C 72.034 236.326,74.772 237.990,75.834 238.884 C 76.077 239.089,76.865 239.538,77.585 239.881 C 78.305 240.224,78.894 240.620,78.894 240.761 C 78.894 240.901,79.392 241.223,80.000 241.475 C 80.608 241.727,81.106 242.058,81.106 242.212 C 81.106 242.366,81.604 242.697,82.212 242.949 C 82.820 243.201,83.318 243.533,83.318 243.687 C 83.318 243.840,83.816 244.172,84.424 244.424 C 85.032 244.676,85.530 245.056,85.530 245.267 C 85.530 245.479,85.638 245.545,85.770 245.413 C 85.902 245.281,86.382 245.575,86.837 246.066 C 87.292 246.557,87.765 246.859,87.888 246.736 C 88.010 246.613,88.111 246.695,88.111 246.918 C 88.111 247.141,88.451 247.432,88.867 247.564 C 89.283 247.696,90.112 248.282,90.710 248.866 C 91.308 249.451,91.797 249.840,91.797 249.731 C 91.797 249.622,92.042 249.752,92.341 250.020 C 92.640 250.288,93.262 250.791,93.723 251.139 C 94.650 251.838,98.726 255.061,99.438 255.658 C 99.686 255.866,100.324 256.369,100.856 256.774 C 101.387 257.180,102.245 257.885,102.762 258.341 C 103.279 258.797,103.818 259.171,103.961 259.171 C 104.103 259.171,104.566 259.471,104.989 259.839 C 105.413 260.206,106.204 260.828,106.747 261.221 C 108.027 262.147,109.392 263.245,110.269 264.055 C 110.653 264.410,110.968 264.605,110.968 264.488 C 110.968 264.371,111.462 264.744,112.066 265.317 C 112.669 265.890,113.596 266.691,114.124 267.097 C 115.669 268.283,116.861 269.251,117.872 270.138 C 118.392 270.594,118.935 270.968,119.078 270.968 C 119.222 270.968,119.762 271.341,120.279 271.797 C 120.796 272.253,121.648 272.959,122.173 273.364 C 122.698 273.770,123.450 274.361,123.844 274.677 C 124.239 274.994,125.012 275.575,125.563 275.968 C 126.113 276.361,126.858 276.960,127.217 277.299 C 127.576 277.639,128.228 278.108,128.665 278.342 C 129.401 278.736,129.763 279.009,131.621 280.576 C 131.996 280.893,132.754 281.473,133.305 281.866 C 133.855 282.259,134.579 282.837,134.912 283.151 C 135.246 283.465,136.382 284.281,137.437 284.964 C 138.492 285.648,139.355 286.325,139.355 286.469 C 139.355 286.613,139.853 286.937,140.461 287.189 C 141.069 287.441,141.567 287.773,141.567 287.926 C 141.567 288.080,142.065 288.412,142.673 288.664 C 143.281 288.916,143.779 289.277,143.779 289.467 C 143.779 289.658,143.945 289.711,144.147 289.585 C 144.350 289.460,144.516 289.500,144.516 289.674 C 144.516 289.848,145.097 290.200,145.806 290.457 C 146.516 290.713,147.097 291.058,147.097 291.223 C 147.097 291.388,147.594 291.730,148.203 291.982 C 148.811 292.234,149.309 292.580,149.309 292.752 C 149.309 292.924,149.558 292.969,149.862 292.852 C 150.166 292.736,150.415 292.811,150.415 293.020 C 150.415 293.228,150.995 293.591,151.705 293.825 C 152.415 294.059,152.995 294.387,152.995 294.554 C 152.995 294.720,153.825 295.155,154.839 295.520 C 155.853 295.884,156.682 296.325,156.682 296.500 C 156.682 296.675,156.848 296.715,157.051 296.590 C 157.253 296.465,157.419 296.511,157.419 296.694 C 157.419 296.877,158.083 297.225,158.894 297.468 C 159.705 297.711,160.369 298.064,160.369 298.252 C 160.369 298.440,160.618 298.499,160.922 298.382 C 161.226 298.265,161.475 298.327,161.475 298.520 C 161.475 298.712,162.470 299.171,163.687 299.539 C 164.903 299.908,165.899 300.358,165.899 300.541 C 165.899 300.724,166.083 300.759,166.308 300.620 C 166.534 300.480,166.824 300.527,166.954 300.723 C 167.187 301.076,173.750 303.049,174.676 303.044 C 174.942 303.043,175.045 303.225,174.906 303.450 C 174.737 303.724,174.910 303.776,175.438 303.609 C 175.908 303.460,176.221 303.520,176.221 303.761 C 176.221 304.004,176.583 304.071,177.143 303.930 C 177.735 303.782,178.065 303.854,178.065 304.132 C 178.065 304.398,178.350 304.475,178.802 304.332 C 179.254 304.188,179.539 304.266,179.539 304.531 C 179.539 304.810,179.869 304.882,180.461 304.733 C 181.036 304.589,181.382 304.658,181.382 304.918 C 181.382 305.177,181.729 305.246,182.304 305.102 C 182.824 304.972,183.226 305.030,183.226 305.237 C 183.226 305.452,183.708 305.507,184.389 305.371 C 185.188 305.211,185.474 305.265,185.303 305.543 C 185.130 305.822,185.472 305.879,186.409 305.727 C 187.183 305.601,187.676 305.650,187.558 305.841 C 187.444 306.025,187.958 306.189,188.699 306.206 C 190.140 306.240,195.576 306.649,195.576 306.724 C 195.576 306.749,198.065 306.778,201.106 306.789 C 211.248 306.825,220.944 306.244,221.820 305.549 C 222.061 305.358,223.969 305.019,226.060 304.796 C 228.151 304.573,229.960 304.244,230.081 304.064 C 230.201 303.884,231.238 303.641,232.385 303.522 C 233.532 303.404,234.470 303.164,234.470 302.990 C 234.470 302.815,234.890 302.673,235.404 302.673 C 235.917 302.673,236.933 302.424,237.661 302.120 C 238.388 301.816,239.379 301.567,239.861 301.567 C 240.343 301.567,240.737 301.401,240.737 301.198 C 240.737 300.995,241.235 300.829,241.843 300.829 C 242.452 300.829,242.949 300.664,242.949 300.461 C 242.949 300.258,243.354 300.092,243.849 300.092 C 244.344 300.092,244.840 299.945,244.952 299.764 C 245.063 299.584,245.589 299.327,246.120 299.194 C 247.989 298.725,261.838 292.076,262.058 291.543 C 262.126 291.378,262.416 291.244,262.704 291.244 C 262.991 291.244,263.226 291.078,263.226 290.876 C 263.226 290.673,263.475 290.507,263.779 290.507 C 264.083 290.507,264.332 290.341,264.332 290.138 C 264.332 289.935,264.581 289.770,264.885 289.770 C 265.189 289.770,265.438 289.630,265.438 289.460 C 265.438 289.290,266.099 288.834,266.908 288.446 C 267.717 288.059,268.381 287.618,268.383 287.465 C 268.385 287.313,268.636 287.189,268.940 287.189 C 269.244 287.189,269.494 287.065,269.496 286.912 C 269.497 286.760,270.074 286.244,270.778 285.764 C 271.482 285.285,272.383 284.611,272.780 284.267 C 273.177 283.922,273.943 283.319,274.483 282.926 C 275.023 282.533,275.926 281.797,276.490 281.290 C 277.053 280.783,278.386 279.622,279.451 278.710 C 282.840 275.807,291.059 267.336,294.636 263.062 C 295.305 262.262,296.350 261.077,296.959 260.428 C 297.567 259.780,298.315 258.941,298.622 258.565 C 298.928 258.188,300.585 256.138,302.304 254.009 C 306.328 249.025,306.474 248.845,306.912 248.346 C 307.115 248.115,308.028 246.932,308.940 245.716 C 309.853 244.500,310.889 243.183,311.244 242.789 C 311.599 242.395,311.889 241.964,311.889 241.830 C 311.889 241.697,312.180 241.252,312.535 240.843 C 312.889 240.433,313.594 239.556,314.101 238.894 C 314.608 238.232,315.272 237.395,315.576 237.035 C 315.880 236.674,316.710 235.661,317.419 234.782 C 318.129 233.903,319.156 232.686,319.701 232.076 C 320.869 230.771,322.108 229.298,323.134 227.997 C 326.721 223.446,343.435 206.225,348.697 201.659 C 349.982 200.544,351.663 199.009,352.432 198.249 C 353.201 197.488,353.925 196.866,354.040 196.866 C 354.156 196.866,354.814 196.286,355.503 195.576 C 356.193 194.866,356.872 194.286,357.013 194.286 C 357.153 194.286,357.652 193.912,358.121 193.456 C 358.591 193.000,359.671 192.046,360.523 191.336 C 361.375 190.627,362.299 189.839,362.577 189.585 C 362.854 189.332,363.175 189.124,363.291 189.124 C 363.406 189.124,364.116 188.544,364.869 187.834 C 365.621 187.124,366.390 186.544,366.577 186.544 C 366.765 186.544,367.186 186.252,367.514 185.895 C 368.231 185.115,370.734 183.226,371.052 183.226 C 371.176 183.226,371.662 182.842,372.131 182.372 C 372.600 181.903,373.454 181.177,374.029 180.758 C 375.080 179.993,374.741 178.802,373.471 178.802 C 372.466 178.802,359.250 175.395,359.147 175.109 C 359.083 174.932,358.793 174.879,358.502 174.991 C 358.210 175.103,357.972 175.035,357.972 174.841 C 357.972 174.646,356.895 174.196,355.579 173.839 C 354.263 173.483,353.276 173.046,353.386 172.867 C 353.496 172.689,353.329 172.642,353.015 172.763 C 352.700 172.883,352.442 172.829,352.442 172.641 C 352.442 172.454,351.530 172.013,350.415 171.661 C 349.300 171.310,348.387 170.847,348.387 170.633 C 348.387 170.419,348.138 170.339,347.834 170.456 C 347.530 170.573,347.281 170.534,347.281 170.370 C 347.281 170.206,346.618 169.853,345.806 169.585 C 344.995 169.318,344.332 168.949,344.332 168.767 C 344.332 168.585,344.166 168.538,343.963 168.664 C 343.760 168.789,343.594 168.749,343.594 168.575 C 343.594 168.401,343.014 168.049,342.304 167.792 C 341.594 167.536,341.014 167.193,341.014 167.031 C 341.014 166.869,340.267 166.451,339.355 166.103 C 338.442 165.754,337.696 165.350,337.696 165.205 C 337.696 165.060,337.115 164.731,336.406 164.474 C 335.696 164.218,335.115 163.878,335.115 163.719 C 335.115 163.560,334.452 163.131,333.641 162.765 C 332.829 162.399,332.166 161.959,332.166 161.787 C 332.166 161.615,331.917 161.475,331.613 161.475 C 331.309 161.475,330.762 161.177,330.399 160.814 C 330.035 160.450,329.206 159.932,328.556 159.663 C 327.905 159.394,327.373 159.053,327.373 158.905 C 327.373 158.758,326.710 158.338,325.899 157.972 C 325.088 157.607,324.424 157.187,324.424 157.039 C 324.424 156.892,323.926 156.565,323.318 156.313 C 322.710 156.061,322.212 155.730,322.212 155.576 C 322.212 155.422,321.714 155.091,321.106 154.839 C 320.498 154.587,320.000 154.261,320.000 154.116 C 320.000 153.970,319.579 153.659,319.064 153.425 C 318.124 152.996,317.598 152.618,316.287 151.429 C 315.896 151.074,315.491 150.787,315.388 150.791 C 314.943 150.809,312.995 149.631,312.995 149.344 C 312.995 149.171,312.498 148.823,311.889 148.571 C 311.281 148.319,310.783 147.979,310.783 147.814 C 310.783 147.650,310.471 147.416,310.090 147.295 C 309.708 147.174,309.059 146.789,308.646 146.441 C 306.658 144.760,306.330 144.516,306.056 144.516 C 305.894 144.516,305.398 144.178,304.954 143.764 C 304.511 143.351,304.145 143.144,304.142 143.304 C 304.139 143.464,304.014 143.419,303.865 143.205 C 303.716 142.991,302.724 142.258,301.659 141.576 C 300.594 140.895,299.724 140.219,299.724 140.075 C 299.724 139.931,299.226 139.607,298.618 139.355 C 298.009 139.103,297.512 138.778,297.512 138.632 C 297.512 138.486,297.091 138.175,296.576 137.941 C 295.582 137.488,295.351 137.323,293.692 135.875 C 293.111 135.369,292.323 134.855,291.940 134.733 C 291.558 134.612,291.244 134.369,291.244 134.194 C 291.244 134.018,290.931 133.775,290.548 133.654 C 290.165 133.532,289.377 133.018,288.797 132.512 C 287.222 131.139,287.037 131.007,285.755 130.343 C 284.694 129.795,283.915 129.238,282.632 128.111 C 282.401 127.908,281.756 127.507,281.198 127.219 C 280.641 126.931,280.184 126.578,280.184 126.434 C 280.184 126.290,279.687 125.966,279.078 125.714 C 278.470 125.462,277.972 125.131,277.972 124.977 C 277.972 124.823,277.475 124.492,276.866 124.240 C 276.258 123.988,275.760 123.661,275.760 123.514 C 275.760 123.366,275.097 122.946,274.286 122.581 C 273.475 122.215,272.811 121.795,272.811 121.648 C 272.811 121.500,272.313 121.174,271.705 120.922 C 271.097 120.670,270.599 120.329,270.599 120.163 C 270.599 119.998,270.027 119.657,269.328 119.404 C 268.630 119.151,268.159 118.780,268.283 118.580 C 268.415 118.366,268.255 118.313,267.895 118.451 C 267.557 118.581,267.281 118.539,267.281 118.358 C 267.281 118.177,266.700 117.838,265.991 117.604 C 265.281 117.369,264.700 117.052,264.700 116.898 C 264.700 116.744,263.797 116.311,262.694 115.935 C 261.590 115.560,260.777 115.107,260.888 114.929 C 260.998 114.751,260.864 114.643,260.590 114.689 C 260.316 114.735,259.594 114.568,258.986 114.319 C 258.378 114.069,256.429 113.489,254.655 113.030 C 252.882 112.570,251.519 112.106,251.627 111.998 C 251.735 111.891,251.402 111.883,250.888 111.981 C 250.374 112.079,249.954 111.997,249.954 111.799 C 249.954 111.601,249.515 111.523,248.977 111.625 C 248.286 111.758,248.080 111.685,248.271 111.375 C 248.465 111.061,248.272 111.006,247.588 111.177 C 246.972 111.332,246.636 111.265,246.636 110.986 C 246.636 110.749,246.468 110.659,246.263 110.786 C 246.058 110.913,244.606 110.838,243.037 110.620 C 241.468 110.402,239.604 110.166,238.894 110.095 C 238.184 110.024,233.705 110.415,228.940 110.963 M226.283 161.320 C 232.555 162.606,234.750 163.826,250.198 174.615 C 269.675 188.218,275.172 191.204,285.892 194.010 L 287.729 194.491 284.602 196.869 C 275.092 204.103,266.119 213.194,256.002 225.845 C 247.331 236.689,242.673 241.638,237.435 245.571 C 221.580 257.478,198.462 259.638,180.961 250.849 C 174.968 247.839,173.661 246.909,155.023 232.390 C 144.960 224.550,139.292 220.945,128.782 215.697 L 122.448 212.535 126.225 210.581 C 133.884 206.620,140.380 200.767,155.514 184.192 C 165.724 173.009,168.645 170.334,173.211 167.982 C 182.865 163.010,192.025 163.066,198.963 168.140 L 201.475 169.977 202.005 169.136 C 206.065 162.689,216.530 159.320,226.283 161.320 " stroke="none" fill="#000000" fill-rule="evenodd"></path></g></svg>