<?xml version="1.0" encoding="utf-8"?>
<!-- Generator: Adobe Illustrator 17.1.0, SVG Export Plug-In . SVG Version: 6.00 Build 0)  -->
<!DOCTYPE svg PUBLIC "-//W3C//DTD SVG 1.1//EN" "http://www.w3.org/Graphics/SVG/1.1/DTD/svg11.dtd">
<svg version="1.1" id="Слой_1" xmlns="http://www.w3.org/2000/svg" xmlns:xlink="http://www.w3.org/1999/xlink" x="0px" y="0px"
	 viewBox="0 0 521.6 648" enable-background="new 0 0 521.6 648" xml:space="preserve">
<g>
	<path fill="#EF5267" d="M394,82.3c-0.3,0.7-0.6,1.4-0.6,2.2c0,0.8,0.5,1.6,1.2,1.7c0.8,0.2,1.6-0.4,2.2-1
		c7.7-7.3,11.7-17.4,10.3-27.9c-0.7-5.8-5.1-9.6-6.3-15c-1.1-5.1,0.8-10.5,2.3-15.1c1.3-4-2.7-4.1-4.8-2.9c-2.7,1.6-5.2,5.9-6,8.9
		c-1.7,6.5,1.5,13.7,3.9,19.3C401.2,63.7,398.7,72,394,82.3z"/>
	<path fill="#EF5267" d="M374,60.1c2.4,6.6,3.3,13,1.6,19.8c-0.9,3.6-1.9,9.5,3.7,5.1c2.9-2.3,3.3-6.4,3.7-9.7
		c0.6-5.2-0.3-10.1-1.6-14.9c-4-14.1-8.4-28.9-3.5-43.5c1.6-4.9,5.4-9,6.9-14.1c0.2-0.7,0.4-1.6-0.1-2.1c-0.3-0.4-0.8-0.6-1.4-0.6
		c-9.2-0.2-15.5,14.4-17,21.1c-1.1,4.9-0.9,10,0.3,14.8C368.6,44.2,371,51.9,374,60.1z"/>
	<path fill="#EF5267" d="M349,45.5c1.4,3.6,2.2,7.5,2.2,11.4c0,4.9-0.6,9.8-0.3,14.6c0.2,3.5,1.1,7.8,2.9,10.9
		c0.7,1.2,1.9,3.5,3.6,3.4c3.2-0.1,1.5-3.1,0.9-5.2c-1.2-4.4-2.1-8.2-1.5-12.6c0.7-4.7,1.7-9.4,2-14.2c0.3-4.7-0.5-9.6-3.5-13.4
		c-0.7-0.9-1.8-1.7-2.9-2.2c-2.4-1-5-0.5-4.6,3.5C348,43,348.6,44.2,349,45.5z"/>
	<path fill="#EF5267" d="M88.5,317.5c-2.1,0.3-3.5,0.8-4.2,1.7c-0.4,0.6-0.6,1.3-0.4,2.1c0.2,1.6,1.1,2.3,2.9,2.3c0.3,0,0.7,0,1-0.1
		c2.9-0.4,5.3-2.1,7.4-5.4c-2.2-0.5-4.1-0.8-5.6-0.8C89.3,317.5,88.9,317.5,88.5,317.5z"/>
	<path fill="#EF5267" d="M418.4,284.4c-0.7-0.6-1.7-0.9-2.6-1.3l-0.4-0.2c-0.6-0.2-1.3-0.4-2-0.4c-1.4,0-3,0.5-4.4,1.3
		c-4,2.5-6.2,6.1-6.5,10.5c-0.1,1.1,0,2.5,0.8,3.6c0.9,1.2,2.4,1.4,3.5,1.4c1,0,2-0.2,3-0.5c2.4-0.9,4.8-2.5,7-4.9
		c1-1.1,1.9-2.2,2.7-3.5l0.3-0.5c0.4-0.6,0.7-1.1,1-1.7c0.2-0.4,0.3-0.7,0.5-1.1C420.5,286.3,419.5,285.2,418.4,284.4z"/>
	<path fill="#EF5267" d="M352.2,263.5c6.7-4.2,10.5-9.9,11.3-16.9c0.2-1.5,0.1-3.3-0.2-5.3c-0.3-1.9-1.1-3.7-2.2-5.2
		c-1.1-1.4-2.8-2.2-5-2.4c-0.3,0-0.6,0-0.9,0c-3.1,0-5.9,1.5-8.4,4.4c-2.9,3.3-5.3,7.8-7.3,13.3c-1.9,5.3-3.4,11.1-4.5,17.3
		c0.3,0,0.7,0,1,0C341.4,268.7,346.7,267,352.2,263.5z"/>
	<path fill="#EF5267" d="M298.7,228.9c0.3-5.2-0.4-9.5-2.1-12.7c-1-2-2.3-3.1-3.8-3.1l-0.2-0.8c0,0,0,0,0,0v0.8
		c-2.3,0-4.5,1.9-6.6,5.6c-3.2,5.6-5,13-5.4,21.9c-0.7,17,1.9,30.6,7.6,40.4C294.3,261.9,297.7,244.9,298.7,228.9z"/>
	<path fill="#EF5267" d="M335.7,129.3h3v17.2c12-3.1,24.5-4.7,37.2-4.7c14,0,27.9,2,41.2,5.9v-18.3h3c4.7,0,8.4-3.8,8.4-8.4v-17.4
		c0-4.7-3.8-8.4-8.4-8.4h-84.3c-4.7,0-8.4,3.8-8.4,8.4v17.4C327.3,125.5,331.1,129.3,335.7,129.3z"/>
	<path fill="#EF5267" d="M462.6,354.1c-1.2,0.6-2.4,1.2-3.4,2.1c-3,2.4-5.8,9.9,0.3,10.3c5.8,0.4,4.5-6.1,4.1-9.7
		C463.2,355.9,462.9,355,462.6,354.1z"/>
	<path fill="#EF5267" d="M482.2,193.6c-53.8-58.4-144.5-62.4-203.2-9.1c-6.5,5.9-12.1,12.6-18.5,19.4c-1.2-1.5-2.3-2.9-3.4-4.1
		c-33.1-39.2-76-57.2-128.2-51.5C58.1,155.9,6.6,213.9,0.8,279.6c-2.7,30,2,59.2,10.9,87.9c14.1,45.2,38.2,85.5,67.9,122.8
		c47.6,59.6,105.1,109.2,169.3,151.8c8.6,5.7,15.4,6,23.8,0c22.6-16.3,45.5-32,67.2-49.4c52.2-42,98.1-89.4,133.3-145.8
		c27.7-44.5,46.2-91.9,48.4-144.2C523.2,261.4,510.9,224.7,482.2,193.6z M441,180.2c11.9,0,11.9,18.5,0,18.5
		C429.1,198.6,429.1,180.2,441,180.2z M331.9,175.5c12.1-5.3,21.5,4.7,28,13.9c8.1,11.5,15.7,30.7,33.3,27.7c5.9-1,9.4-4.1,12.2-9.4
		c2.7-5.2,4.8-10.2,3.6-16.1c-1-4.6-4.2-8.9-9-9.9c-2.9-0.5-6-0.6-8.6,0.7c-3.2,1.6-4.2,5.2-3.4,8.5c0.6,2.7,6.2,6.8,5.3,9
		c-1.1,2.6-6.4,1.6-8.2,0.6c-8.1-4.1-14.5-16.7-7.1-24.3c1.2-1.2,2.6-2.1,4.1-2.8c10-4.6,20.8-3.1,28.6,4.6
		c7.9,7.9,7.9,21.6,2.8,31.1c-5.1,9.5-15.5,18.5-27,15.8c-11.5-2.7-19.7-14-25.9-23.4c-3.3-4.9-6.5-10.4-10.7-14.6
		c-3.5-4.5-8.5-5.8-13.9-4.2c-8.5,2.5-5.4,9.6-2.2,15.4c0.7,1.3,2.3,3.4,3.4,5.4c0.7,1.2,1.1,2.4,1,3.4c-0.4,4.2-6,3.8-9.3,2.4
		c-3.6-1.4-7-4.6-8-8.4C318,191.2,322.1,179.8,331.9,175.5z M245,228c0-3,1.6-6.6,9-6.6c3.3,0,5.5,0.8,6.9,2.2
		c1.1,1.2,1.7,2.8,1.6,4.8c-0.5,20.8,0.8,39.2,3.9,54.6c1.9,9.4,4.8,16.8,8.7,21.9c0.6,0.8,1.1,0.8,1.2,0.8c0.3,0,0.7-0.4,0.9-0.7
		c3.2-4.7,5.9-10.1,8-16c-3.6-4.1-6.3-9.1-8.1-15c-1.9-6.1-3-12.2-3.5-18.3c-0.5-6.3-0.7-11.3-0.5-15.5c0.5-13.3,3.6-23.1,9.3-29.1
		c3.1-3.2,6.5-4.9,10.2-4.9l0.5,0c4.6,0.2,8.2,2.6,10.5,7c2.2,4.3,3.2,9.6,2.8,15.9c-1.1,17.2-5.3,36.2-12.7,57.9
		c2.1,1.4,4.3,2.1,6.7,2.2c2.9,0,5.4-1.2,7.9-3.6c3.7-3.5,6.9-8.8,9.6-15.6c0.2-1.4,0.5-2.9,0.8-4.6c0.9-4.5,2.3-9.3,4.1-14
		c1.8-4.8,4.1-9.3,6.9-13.5c2.8-4.2,6.2-7.5,10.2-10c3.4-2.1,7.3-3.1,11.5-3.1c0.8,0,1.6,0,2.4,0.1c4.7,0.4,8.5,1.8,11.1,4.1
		c2.6,2.3,4.4,5.1,5.3,8.4c0.9,3.2,1.1,6.5,0.7,9.8c-0.8,6.3-3.2,11.6-7.3,15.9c-4,4.2-8.8,7.4-14.3,9.4c-4.6,1.7-9.2,2.6-13.6,2.6
		c-0.6,0-1.1,0-1.7,0l-0.3,3.6c-0.7,7.7-0.1,14.8,1.7,21c2.2,7.2,6,11,11.7,11.5c0.3,0,0.7,0,1,0c2.5,0,4.8-0.8,7.1-2.3
		c8.7-5.9,13.7-16.4,18.5-26.5c6-12.7,12.3-25.9,26-30.4c3.7-1.2,7.2-1.8,10.5-1.8c10,0,17.9,5.6,22.7,16.2
		c2.6,5.7,2.2,13.7-1.1,21.9c0.6,1.1,1.2,2.1,1.8,3.3l0.7,1.5c3.8,8.3,8.1,17.8,18.7,17.8c0.8,0,1.6-0.1,2.5-0.2
		c10.7-1.3,19.4-7.8,23.8-17.7c7.2-16.5,8-34.8,2.1-48.8c-3.5-8.3-11.3-22.4-24.3-24.1c-0.7,0.1-1.6,0.1-2.4,0.1
		c-5.2,0.2-9.6,0.3-13.9,3.7c-4.2,3.4-6.4,8.8-5.3,13.6c0.2,1.1,0.6,2,1.1,2.8c1.4,2.2,4,3.5,7,3.5c0.3,0,0.6,0,0.9,0
		c2.9-0.3,5.7-1.8,8-4.4c0.3-0.4,0.7-0.8,1-1.2c1.2-1.5,2.6-3.2,4.5-3.8c0.7-0.2,1.3-0.3,1.8-0.3c1.1,0,2,0.5,2.7,1.3
		c1.8,2.5,0.7,7.6,0.1,9.4c-1.8,5.6-4,9.6-9.3,12c-2.6,1.2-5.5,1.8-8.6,1.8c-5.5,0-11-2-15.1-5.4c-5.8-4.8-8-12.2-5.9-19.8
		c3.8-13.6,13.5-21.5,26.8-21.5c15.2,0,30.6,10.4,36.6,24.7c7.7,18.2,8.4,48-3.8,66.3c-6.9,10.5-17.3,16-30,16c-0.8,0-1.5,0-2.3-0.1
		c-4.8-0.2-11.9-3-15.1-7l-1.4-1.8c-2.4-3-3.6-4.5-5.6-8.9c-0.7-1.5-1.3-2.9-1.7-4c-5.6,8.1-13.1,12.9-20.2,12.9
		c-1.9,0-3.7-0.3-5.6-1c-4.6-1.6-7.7-5.1-8.5-9.5c-0.9-5,1-9.8,2.7-12.9c2.4-4.3,5.9-7.9,9.9-10c2.4-1.3,5.1-2,7.7-2
		c2,0,3.9,0.4,5.7,1.2c1.3,0.6,2.5,1.3,3.4,2.1c0.6,0.5,1.1,1,1.6,1.5c0.8-2.7,0.8-5.5,0.1-8.1c-0.4-1.5-1.1-2.9-2-4.3
		c-0.5-0.7-0.9-1.4-1.5-2l-0.3-0.3c-0.2-0.3-0.9-1.1-1.1-1.3c-3.3-3-7-4.4-11-4.4c-2.9,0-6,0.8-8.9,2.2c-1.1,0.5-2.2,1.9-3.1,2.9
		l-0.5,0.5c-4.3,4.9-8.1,11.8-12.1,19c-9,16.3-19.3,34.9-38.2,34.9c-0.8,0-1.6,0-2.5-0.1c-4.8-0.4-9.2-2-13.1-4.7
		c-3.9-2.7-6.8-6.2-8.8-10.5c-1.9-4.2-3.2-8.8-3.7-13.4c-0.1-1.4-0.2-2.6-0.1-3.8c-1.3,1.7-2.4,3-3.6,4.1c-4,3.8-8.3,5.7-12.8,5.7
		l-0.8,0c-2.9-0.1-5.8-1-8.7-2.4c-5.8,14.1-11.4,21-17.1,21c-5.6-0.1-10.3-2.9-14.3-8.2c-6.6-8.8-8.6-20.5-10.4-31.1c-1-6-2-12-3-18
		C244.8,247.8,244.9,237.6,245,228z M400,335.6c-5.9-0.7-12-0.7-17.1-0.7c-9.9-0.2-11.6,0.4-12.8,9.5c-0.5,3.7-1.1,8.2-1.8,13.6
		c-0.7,5.4-1.4,11.4-2.1,18c-0.7,6.6-2.3,19.4-1.6,19.9c0.9,0.7,9.5-1.4,12.7-1.6c3.2-0.3,5.7-0.4,7.9-0.5c1.1,0,1.9,0.4,2.4,1
		c0.5,0.7,0.7,1.4,0.6,2.2c-0.1,0.8-0.4,1.5-0.9,2.2c-0.5,0.7-1.3,1.1-2.2,1.2c-5.1,0.5-9.7,0.7-13,1.2c-3.3,0.4-7.4,0.6-7.8,1
		c-1.1,1.2-0.2,9.3-0.1,14.4c0.1,5.1,0.4,9.8,0.7,14.1c0.3,4.3,0.7,7.9,1.2,10.7c0.5,2.8,1.1,4.2,1.8,4.2c4-0.2,7.7-0.8,11.1-1.9
		c3.5-1.1,6.5-2.4,9.1-3.7c2.9-1.4,6.2-3.7,8.6-4.7c1.4-0.6,2.9,0.3,3.3,1.9c0.4,1.7-0.4,3.1-2.5,4.3c-3.5,2-7.3,3.9-11,5.4
		c-3.5,1.5-7.4,2.8-11.4,4c-4,1.2-8.1,1.9-12.2,2.1c-3.4,0.2-6.3-1.3-8.6-4.3c-2.3-3-4-7.2-5.3-12.6c-1.2-5.4-2-11.6-2.5-18.7
		c-0.4-7.1-0.4-14.7-0.1-22.7c0.3-7.2,0.8-14.3,1.5-21.4c0.7-7.1,1.4-13.5,2.2-19.3c0.8-5.8,1.5-10.6,2.3-14.4
		c0.8-3.9,0.1-8.8,4.4-11c3.6-1.9,11.3-1,15.2-1.1c4.2-0.1,8.1-0.1,11.8,0c3.7,0.1,7,0.3,9.8,0.5c2.8,0.2,4.8,0.4,6.3,0.5
		c1.1,0.2,1.9,0.6,2.4,1.4c0.5,0.7,0.7,1.5,0.6,2.3c-0.1,0.8-0.4,1.5-0.9,2.2C401.7,335.5,400.9,335.7,400,335.6z M400,366.4
		c-0.6,2.3-2,3.7-3.9,5c-0.2,0.1-0.3,0.3-0.5,0.4c-6.6,4.9-16.3-4.8-11.4-11.4c0.1-0.2,0.3-0.3,0.4-0.5c1.8-2.5,4.1-4.2,7.3-4.2
		c2.2,0,4.4,0.9,6,2.5C399.9,360.3,400.8,363.5,400,366.4z M340.1,329.8c-0.7,4.6-1.7,10.6-3,18.1c-1.3,7.5-2.6,15.6-4,24.3
		c-1.4,8.7-2.8,17.5-4.3,26.4c-1.5,8.9-2.8,17.1-4,24.4c-1.2,7.4-2.2,13.5-3.1,18.4c-0.8,4.9-1.3,7.6-1.4,8.2
		c-0.2,1.1-1.5,2-3.7,2.6c-2.2,0.7-4.6,1-7.2,1c-1.7,0-3.3-0.1-4.7-0.5c-1.4-0.3-2.7-0.9-3.2-1.7c-2.7-4-4.6-11.3-6.4-18.9
		c-1.8-7.6-3.4-15.7-4.7-24.4c-1.3-8.6-2.3-17.3-3.1-26.1c-0.7-8.7-1.3-16.7-1.7-23.8c-0.4-7.1-0.6-13-0.7-17.7
		c-0.1-4.7,0-7.4,0.3-7.9c0.4-1,1.2-1.9,2.6-2.5c1.3-0.6,2.7-1,4.3-1.1c2.4-0.2,4.7,0,6.9,0.7c2.2,0.6,3.3,1.7,3.4,3
		c0.1,1.6,0.3,4.3,0.7,8c0.4,3.8,0.9,8.1,1.5,13.2c0.6,5,1.3,10.5,2,16.3c0.7,5.8,1.5,11.7,2.2,17.6c1.8,13.8,5.9,45.4,5.9,45.4
		c0.2,0,5.4-27.9,7.7-40.9c1.4-7.7,2.4-14.2,3.3-19.4c0.9-5.2,1.9-10.4,2.7-15.7c0.9-5.3,1.7-10.4,2.5-15.3c0.8-4.9,1.4-9.3,1.9-13
		c0.3-2.1,1.6-3.3,3.7-3.3c1.1,0,2.1,0.3,2.8,1.1C340.1,327.2,340.4,328.3,340.1,329.8z M165.8,348.9c-12.4,0-12.4-19.2,0-19.2
		C178.2,329.8,178.2,348.9,165.8,348.9z M190.6,222.8v39.9h-40.3C152.2,241.4,169.3,224.4,190.6,222.8z M198.1,310.1v-39.9h39.5
		C235.8,291.3,219.1,308.1,198.1,310.1z M198.1,262.7v-39.9c21,2,37.7,18.8,39.5,39.9H198.1z M150.3,270.2h40.3v39.9
		C169.3,308.5,152.2,291.5,150.3,270.2z M189.8,357c0.1-5.7,0.4-10.6,0.7-14.5c0.3-3.9,0.6-6.2,0.9-6.7c0.6-1,1.9-2,3.7-2.9
		c1.8-0.9,3.5-1.6,5.1-2.1c2-0.6,4.1-0.7,6.1-0.4c2,0.3,3.1,1.4,3.3,3.3c0.1,1,0.1,3.8,0,8.2c-0.1,4.4-0.1,9.8-0.1,16.2
		c0,6.4,0.1,13.3,0.2,20.9c0.2,7.6,0.5,15,1.1,22.3c0.4,4.7,0.9,9.9,1.7,15.5c0.8,5.6,1.6,10.9,2.5,15.8c2.4,12.7,4,19.8,17.7,17.7
		c3.7-0.6,7-1.6,9.7-2.6c3.1-1.2,6.6-3.5,8.9-4.3c1.4-0.5,3.3,0.8,4,3c0.7,2.2,0,3.9-2.2,5c-3.7,1.8-7.7,3.3-11.7,4.3
		c-3.8,1-7.9,1.7-12.2,2.1c-4.3,0.4-8.7,0.2-13.3-0.5c-3.8-0.7-7.1-2.9-10-6.4c-2.9-3.6-5.3-8.1-7.3-13.6c-2-5.5-3.6-11.7-4.9-18.6
		c-1.3-6.9-2.3-14.2-2.9-21.9c-0.6-6.9-0.9-13.8-1-20.7C189.7,369,189.7,362.7,189.8,357z M252.6,429.9c-1.9-7.2-3.4-14.6-4.5-22.2
		c-1.1-7.7-1.9-15.2-2.4-22.6c-0.5-7.4-0.8-14.5-0.9-21.2c-0.1-6.7-0.1-12.7,0.2-17.9c0.2-5.2,0.5-9.4,0.8-12.7
		c0.3-3.2,0.6-5,0.9-5.1c1.2-0.8,2.3-1.4,3.5-1.8c1.1-0.4,2.5-0.7,3.8-0.8c1.9-0.1,4,0.1,5.9,0.3c2,0.2,3.1,0.9,3.5,1.9
		c0.2,0.4,0.3,3.1,0.5,8.3c0.1,5.1,0.3,11.4,0.5,18.9c0.2,7.5,0.3,15.6,0.5,24.2c0.2,8.7,0.4,16.8,0.5,24.2c0.2,7.5,0.3,13.8,0.4,19
		c0.1,5.2,0.1,8.1,0.2,8.6c0.1,0.8-0.4,1.4-1.3,1.7c-0.9,0.3-2,0.5-3.2,0.4c-1.9,0-3.8-0.4-5.7-1
		C253.9,431.4,252.8,430.7,252.6,429.9z M237.8,239.9c-0.2-0.3-0.4-0.7-0.6-1c0.2,0.3,0.5,0.5,0.7,0.8
		C237.9,239.7,237.8,239.8,237.8,239.9z M177.7,165.4c4.3-0.7,8.8,0.3,12.2,3.2c3.9,3.3,9.8,12.8,2.5,15.7
		c-8.5,3.3-12.2-13.1-20.7-2.5c-4.2,5.2-2.7,12.7,2.5,16.6c8.7,6.6,19.3,1.1,27.7-2.7c7.4-3.3,15.4-5.3,23-2.1
		c7.5,3,11.8,13.3,4.9,19.3c-1.8,1.6-5.4,3-8.4,2.7c-1.8-0.2-6-2.4-4.6-4.8c0.5-0.9,1.4-1.4,2.3-1.8c4-2.1,10.1-4.5,4-9.2
		c-2.5-1.8-6.7-1.4-9.5-0.6c-2.1,0.4-4.1,1-6.1,1.7c-3.4,1.4-6.5,3.1-9.8,4.6c-4.6,2-10,3.8-15.1,3.1c-11.8-1.6-18.6-7.8-20.9-19.7
		c-0.2-1.1-0.4-2.2-0.4-3.3C160.9,175.9,168,167,177.7,165.4z M54.4,214.7c5.6,0,10.3,4.7,10.3,10.3c0,5.6-4.7,10.3-10.3,10.3
		c-5.6,0-10.3-4.7-10.3-10.3C44.2,219.4,48.8,214.7,54.4,214.7z M31.2,341.8c-0.7-12.6,4.3-24.1,9.9-35.8l1.6-3.3
		c1.4-3,2.9-6,4.3-9.1c-6.1-1.8-11.8-4.5-17-8c-8-5.4-12-14.5-10.2-23.1c1.6-7.6,7.4-13,15.7-14.5c1.5-0.3,3-0.4,4.4-0.4
		c6.2,0,11.4,2.8,15,8.1c6,9,6.1,23.2,2.7,32c1.6,0.2,3,0.3,4.3,0.3c13.1,0,24-3,34.2-9.4c-2.4-9.9-5.6-19.5-8.7-28.5
		C80.7,231,76.8,217.3,75.5,208c-1.6-11.5,0.7-21.3,7-29.4c6.8-8.6,16.9-13.6,30.3-14.7c1.4-0.1,2.7-0.2,4-0.2
		c8.1,0,15.2,2.2,21,6.6c6.8,5,10.6,13.2,11.5,24.2c1.9,24.2-7.7,48.2-29.4,73.2c-2.2,2.5-4.5,5-6.9,7.5c1.6,6.5,2.6,11.9,3.1,16
		c0.8,7.1,0,13.9-2.5,20c12.1,2.9,20.8,4.4,26.6,4.4c0.8,0,1.6,0,2.3-0.1c7-0.6,12.2-3.2,15.8-8.1c0.6-0.8,1.1-1.6,1.6-2.4
		c2,1.7,4,3.3,6.2,4.7c-0.2,0.3-0.3,0.5-0.5,0.8c-6.7,9.7-15.1,14.9-25.9,15.8c-1.3,0.1-2.6,0.2-3.9,0.2c-2.6,0-5.2-0.2-7.9-0.6
		c-4.6-0.7-11.2-2.2-20.8-4.6c-5.7,5.7-11.4,8.9-17.5,9.7c-0.9,0.1-1.7,0.2-2.5,0.2c-2.7,0-5-0.7-6.7-2c-2.2-1.7-3.6-4-4-6.6
		c-0.5-3.5,0.4-6.6,2.9-9.3c2.4-2.7,6.1-4.3,11-4.9c1.3-0.2,2.7-0.3,4.1-0.3c1.4,0,2.9,0.1,4.4,0.3c0.7-4.5,0.7-9.6,0-15.3
		c-0.3-2-0.6-4-0.9-5.9c-10.4,5.9-21.9,9-33.4,9c-3.4,0-6.8-0.3-10.1-0.8c-0.8,1.8-1.7,3.7-2.5,5.5c-4.8,10.5-9.8,21.4-11.9,33.1
		c-1.5,8.5,4.1,17.3,10.3,21.4c0.6,0.4,1.3,0.8,2.1,1.1c-0.3-4.2,0.2-8.1,1.4-11.5c1.1-3.1,2.8-5.6,5-7.4c2.7-2.3,6.2-3.6,9.7-3.6
		c2.2,0,4.5,0.5,6.4,1.6c4.1,2.2,6.5,5.2,7,8.8c0.5,4.2-1.7,9-6.2,13.1c-3.6,3.3-8.1,5.5-13,6.4c0.2,0.5,0.4,0.9,0.5,1.3
		c1.8,3.5,4.1,6.6,7,9.1c1.5,1.3,3.4,2.1,5.4,2.8c0.5,0.2,1.1,0.4,1.6,0.6c1.9,0.8,3.7,1.1,5.4,1.1c2.8,0,5.2-1,6.9-3
		c2.2-2.5,3.2-6.1,2.8-10.3c-0.1-0.6-0.2-1.3-0.3-1.9c-0.3-2.3-0.7-4.6,0.3-6.8c1-2.4,3.5-3.8,6.4-3.8c2.1,0,4.1,0.8,5.5,2.1
		c2.9,2.8,4.1,6.8,3.5,11.5c-0.9,6.8-5.6,14.2-11,17.3c-3.8,2.2-8.3,3.3-13.1,3.3c-4.7,0-9.4-1.1-13.7-3.1
		c-8.2-3.9-14.2-11.1-16.5-19.9C42.8,362.9,31.9,355.6,31.2,341.8z M287.1,599.6c-1.1-3.4,0.4-6.5-3.2-8.9c-2.6-1.8-6.4-1.2-9.2-0.4
		c-6.6,2-10.4,6.3-14.3,11.2c2,2.9,3.8,6,5.3,9c3.2,6.4,5.8,19.7-5.3,20.3c-9.7,0.5-13.3-9.8-12.1-17.5c0.6-3.9,1.9-8.1,3.7-11.9
		c-3.3-3.8-7-7.3-11.2-9.8c-3.7-2.2-9.3-4.4-13.1-1.5c-1.5,1.2-2.1,3.1-2.4,5c-0.5,2.8-0.5,5.7-2.2,6.7c-0.7,0.4-1.5,0.4-2.2,0.3
		c-3.3-0.5-5.9-3.6-6.4-6.9c-1.6-9.8,7.8-15.2,16.3-14.1c7.9,1,16.1,5.3,21.8,10.9c1.1,1.1,2.1,2.2,3.1,3.4c0.8-1.1,1.7-2.1,2.7-3.1
		c4.6-4.4,10.5-7.5,16.8-8.6c8.6-1.5,21.3,0.8,21.9,11.9C297.5,602.4,289.7,607.7,287.1,599.6z M423.9,475.1
		c-2.8,7.4-9.2,15.7-19,17c-0.6,2.2-1.2,4.1-1.9,5.9c-0.7,1.8-1.5,3.7-2.3,5.5c-6.5,14.5-14,26.7-23.7,38.3c-6.7,8-16,19-28.5,19.7
		c-0.3,0-0.7,0-1,0c-11.4,0-18.7-10.6-20-20.8c-7.9,20.9-15.5,31.8-23.2,33.5c-0.8,0.2-1.5,0.2-2.2,0.2c-2.2,0-4.2-0.8-5.7-2.4
		c-3.6-3.6-5.2-11.2-5.1-23.1c0.1-6,0.7-14.7,1.7-25.8c0.9-9.2,1.7-17.1,2.6-24.2c0.4-3,0.7-5.8,1-8.1c0.3-2.5,0.7-4.9,0.6-5.3
		c-0.5-0.3-4.6-1.4-6.1-1.6c0,0.6-0.2,2.2-0.3,3.4c-0.1,1.4-0.3,2.8-0.4,3.9c-1.7,11.2-4,22.9-6.8,34.7c-0.2,1.3-0.6,3.1-1.2,5.5
		c-1.7,6.5-3.8,13.3-6.3,20.2c-6.5,17.7-14.3,26.3-23.8,26.3l-0.5,0c-4.1-0.1-8.1-1.7-11.9-4.7c-3.7-2.9-6.7-6.8-9-11.5
		c-2.2-4.5-3.9-9.2-5.1-14.1c-2,8.9-3.7,15-5.4,18.5c-2.4,5.1-5.3,7.6-9,7.6c-0.6,0-1.2-0.1-1.8-0.2c-3.6-0.8-6.8-3.2-9.3-7
		c-3.2-4.8-5.3-10.4-6.2-16.6c-0.4-3.1-1.2-10-1.4-20.9c-0.3-12.2-0.7-26.4-2.2-39c-0.3-2.6-1-3.9-2-3.9c-1.6,0-2.9,1.8-3.8,3.3
		c-1.4,2.4-2.6,5.3-3.6,8.7c-1.1,3.6-2,7.6-2.6,11.8c-2.2,14-2.7,28.4-1.4,42.8c0.3,3.7-0.2,6.2-1.6,7.7c-0.9,1-2.2,1.5-3.9,1.5
		c-1.3,0-2.7-0.3-4.4-0.9c-6.3-2.3-10.6-10.8-13.7-17.1l-1-2.1c-8.1-15.8-14.6-33.6-19.3-53.1c-4.1,1.5-8,2.2-11.9,2.2
		c-3.7,0-7.5-0.6-11.3-1.8c-3.3-1.1-7.7-2.7-11.8-5.4c-10.1-6.7-17.6-18.7-20-32.1c-0.2-0.1-0.4-0.2-0.6-0.3
		c-2.2-1.4-4.1-3.2-5.8-4.8c-2.9-2.8-5.3-5.9-7.3-9.4c-5.1-9-8.6-22.6-4.9-32.8c0.9-2.4,2.4-4.3,4.4-5.2c0.8-0.4,1.7-0.6,2.7-0.6
		c1.7,0,3.2,0.7,4.1,1.8c1.8,2.1,1.4,5,0.8,7.9c-1,4.3-1.9,8.5-2.1,12.7c-0.2,6.1,1.9,12.1,6,17.1c0.5,0.7,1.2,1.4,2,2
		c0.3-5.9,1.6-11.2,4-16c2.8-5.6,7.5-8.7,13.3-8.7c7.9,0,15.8,5.6,18.5,13.1c3.1,8.5,0.3,17.1-7.1,22c-4.3,2.8-9.8,4.4-15.3,4.4
		c-1.1,0-2.1-0.1-3.2-0.2c1.1,4.1,2.8,7.9,5.2,11.2c7.4,10.2,18.2,16.3,28.9,16.3c3.3,0,6.5-0.6,9.5-1.7
		c-4.4-20.9-6.8-42.5-6.9-64.4l0-4.9c-0.1-7.2-0.1-14.7,0.4-22c0.7-9,2-19.3,7.3-27.4c2.7-4,7.6-6.6,12.8-6.7
		c13.1,0,20.2,14.9,22.5,27.6c5.9,33.7,1,67-13,88.9c-1.4,2.1-3,4.2-4.9,6.2c4,22.7,9.2,48.8,20,71.9c0.5,1,0.9,1.7,1.1,2
		c0-0.2,0-0.4-0.1-0.7c-0.8-7.7-1.1-16.1-0.7-25.6c0.5-12.8,2.5-23.9,5.8-33.2c4.1-11.6,10.3-17.7,17.9-17.7
		c7.5,0,11.9,5.3,12.9,15.7c1.2,12.2,1.7,25.6,1.6,40.9c-0.1,7.9,0.3,14.9,1,21c0.4,3.4,1,6.3,1.9,8.7c0.9,2.4,1.8,2.8,2.1,2.8h0
		c0.5,0,2-0.6,3.9-7.3c1.3-4.5,2.2-8.3,2.8-11.5c0.6-3.2,1.1-5.9,1.5-8c0.7-3.6,1.5-7.4,2-11.4c0-1.6,0-3.4,0-5.4
		c0.1-5,0.5-10.2,1.4-15.6c0.9-5.4,2.2-10.5,4-15.3c1.8-4.8,4.4-8.9,7.5-12c3.2-3.2,7.3-4.9,12-5l0.6,0c4,0,7.4,1.1,10,3.2
		c2.7,2.2,4.6,5.1,5.9,8.6c1.2,3.4,1.9,7,2,10.8c0.2,7.1-1.2,13.4-4.2,18.8c-3,5.3-6.7,9.4-11.2,12.3c-4.2,2.7-8.6,4-12.9,4.1
		l0.3,4.1c0.5,8.6,2.1,16.5,4.7,23.5c3,8,6.9,12.1,11.6,12.2c0,0,0,0,0,0c2.4,0,4.5-1.1,6.4-3.3c3.4-4,6.4-9.6,9-16.9
		c3.5-9.8,5.9-18.2,7.1-24.8c0.1-0.8,0.4-1.9,0.7-3.2c2.5-10.2,4.5-20.3,5.8-30c0.1-1,0.3-2.1,0.5-3.3c0.4-2.4,1-6.4,0.8-7.1
		c-0.8-1.8-3-4.2-5.4-6.7c-4.4-4.6-9.8-10.2-9.9-16.3c-0.1-3.7,0.7-6.7,2.4-8.8c1.7-2.2,4.2-3.4,7.2-3.5l0.5,0c3.8,0,6.9,1.7,9.3,5
		c2.5,3.4,3.7,8.4,3.7,15.4c0,1.5-0.2,3.5-0.3,5.4c-0.2,2-0.4,4.8-0.2,5.3c0.8,1.7,7.7,3.2,15,3.2c0.9,0,1.8,0,2.6-0.1h0.1
		c1.3,0,2,0.3,2.6,0.8c0.6,0.6,0.9,1.6,0.9,2.8c0,1.6-0.3,3.6-0.7,6.2c-2,11.6-4.2,27.1-6.5,46c-0.6,4.8-1,9-1.1,12.6
		c-0.3,10.9,0.7,14.4,1.6,15.3c0.2,0.2,0.3,0.2,0.4,0.2c2.6-0.5,5.4-4.2,8.5-10.8c3.3-7.2,5.9-13.6,8-19.6c1.7-5,3.2-9.7,4.4-14.1
		c0.2-1.6,0.4-3.4,0.7-5.3c0.8-4.9,1.9-10.1,3.5-15.4c1.6-5.4,3.6-10.5,6-15.1c2.4-4.8,5.5-8.7,9-11.8c3.6-3.1,7.8-4.8,12.7-5.1
		c0.5,0,1,0,1.5,0c3.7,0,6.7,0.9,8.9,2.5c2.5,1.9,4.2,4.3,5.1,7.3c0.9,2.9,1.1,6,0.8,9.2c-0.7,6-2.8,11.4-6.6,16.4
		c-3.6,4.9-8,9-12.9,12.4c-4.9,3.3-9.5,5.4-13.9,6.3l-0.3,3.9c-0.9,11.2,0.5,19.2,4,23c1.7,1.8,3.8,2.7,6.4,2.7c0.6,0,1.2,0,1.9-0.1
		c4.7-0.7,10.3-6.5,14.4-10.7c0.8-0.8,1.5-1.6,2.2-2.2c12.3-12.2,22.5-29,27.3-45.2c-6-1.1-11.5-5.1-15.1-11.1
		c-2.1-3.5-2.9-6.7-2.3-9.4c0.7-3.3,3.5-5.6,7.9-6.7c1.7-0.4,3.4-0.6,5-0.6c4.4,0,7.9,1.7,10,4.9c1.5,2.2,2.3,5,2.5,8.5l0,0.5
		c0.1,2,0.3,4.2-0.1,6.2c4-1.4,7-5.2,8.3-8.7l0.4-1c0.8-2.1,1.4-3.9,1.4-6.2c0-2.8-0.7-5.6-1.4-8.3l-0.1-0.5
		c-0.4-1.5-0.8-3.2-0.2-4.8c0.6-1.8,2.6-3.2,4.6-3.2c0.3,0,0.5,0,0.8,0.1c2,0.3,3.5,1.5,4.6,3.3
		C427.7,460.4,425.4,471.1,423.9,475.1z M472.3,404l-0.2,0.1c-3.1,1.2-6.5-0.4-8.8-2.3c-1.9-1.6-2.9-4.5-2.8-7
		c0.2-5.9,5.7-10.4,11.6-8.8c2.6,0.7,4.6,2.5,5.7,4.8c0.4,0.6,0.7,1.3,0.9,2.1C480.1,398.1,476.9,402.2,472.3,404z M489.9,341.4
		c-5.4,6-13.6,7.8-21,10.2c3.1,8.4,2.7,17.5-5.5,23.5c-7.8,5.7-18-4.7-16.8-12.5c0.5-3.4,2.2-6.3,4.6-8.7c1.2-1.2,2.6-2.2,4-3
		c1.1-0.7,3.6-1.3,4.4-2.3c-0.8-2-2.3-3.7-4-5c-1.7-1.4-3.6-2.4-5.5-3.5c-1.6-0.9-3.5-1.3-5.3-1.6c-5.3-0.9-11.8,0.9-12.3,7.1
		c-0.4,4.5,0.5,9.8,2.6,15.5c2.1,5.7,4.5,11.6,7.1,17.6c2.6,6,5,12.1,7,18.3c2.1,6.1,2.9,12.2,2.4,18.6c-0.6,7.6-3.5,13.5-8.9,18.1
		c-5.4,4.6-11.6,7.5-18.8,8.4c-4.4,0.6-7.7-0.1-10-1.9c-2.3-1.8-3.8-4.2-4.8-7.2c-0.9-3-1.4-6.1-1.3-9.5c0.1-3.3,0.2-6.3,0.4-8.8
		c0-0.6,0.4-1.1,1.1-1.4c0.7-0.3,1.5-0.5,2.3-0.5c0.8,0,1.6,0.1,2.2,0.3c0.7,0.2,1,0.6,0.9,1.2c-0.1,0.7-0.1,2.2-0.1,4.5
		c0,2.3,0.3,4.7,0.8,7.2c0.5,2.5,1.3,4.7,2.6,6.5c1.2,1.9,3.1,2.7,5.5,2.4c0.8-0.1,1.8-0.3,2.8-0.7c1-0.4,2.1-1.1,3.2-2.1
		c1.1-1,2.1-2.4,2.9-4.3c0.8-1.8,1.3-4.2,1.6-7.2c0.5-6.5-0.4-12.8-2.8-19.1c-2.3-6.3-5-12.7-8-19c-3-6.3-5.7-12.5-8.1-18.6
		c-2.4-6-3.4-11.6-3-16.6c0.1-1.7,0.6-3.7,1.5-6c0.9-2.3,2.3-4.4,4.3-6.3c6.6-6.2,16.7-5.7,25-4.5c8.9,1.3,17.4,5.8,22.2,13.6
		c0.4,0.6,0.7,1.2,1,1.8c4.1-1.3,8.4-2.3,12-4.8c3-2.1,5.7-6.5,6.1-10.2c0.4-3.4,0-7.3,3-9.8c3.3-2.7,6.7,1.2,7.5,4.5
		C496.2,331.1,493.3,337.7,489.9,341.4z"/>
	<path fill="#EF5267" d="M393.6,472.3c-1,0-1.8,0.4-2.4,1.2c-1.3,1.8-0.4,4.3,0.1,5.2c0.7,1.5,1.8,2.8,2.9,3.5
		c1.8,1.2,3.7,2,5.4,2.4c0.4-2.2,0.8-6.8-1.4-9.7C397.3,473.6,395.3,472.3,393.6,472.3z"/>
	<path fill="#EF5267" d="M259.3,495c-0.1-1.7-0.4-3.7-1-5.9c-0.6-2.2-1.5-4-2.8-5.6c-1.1-1.4-2.6-2.1-4.5-2.1v-0.8c0,0,0,0,0,0
		l-0.2,0.8c-3,0.1-5.5,2.1-7.5,5.9c-2,4-3.6,9.3-4.5,15.6c-1,6.8-1.9,18.5-1.5,20.2c0,0,0,0,0,0c0.1,0,0.1,0,0.3,0
		c2.7,0,10-3.4,13.9-7.6C257.1,510,259.6,503.1,259.3,495z"/>
	<path fill="#EF5267" d="M102,438.9c0.8-2.5,0.5-5.2-0.8-7.2c-1.2-1.9-3.4-3.1-5.5-3.1c-0.2,0-0.5,0-0.7,0c-1.8,0.2-3.6,1.3-4.9,3
		c-1.1,1.4-1.9,3.2-2.6,5.6c-0.7,2.4-1.1,5-1.2,7.7c2,0.6,3.9,0.9,5.8,0.9C95.4,445.9,100.1,444.6,102,438.9z"/>
	<path fill="#EF5267" d="M160.7,397.4l-0.1-1.2c-0.5-4.8-1.8-17.5-5.4-23.8c-1.2-2.2-2.6-3.3-4-3.3c-0.7,0-1.6,0.3-2.4,0.9
		c-3.8,2.6-4.6,10.7-5.1,15.5l-0.1,1c-0.4,4.1-0.5,8.4-0.6,12.5c0,2.3-0.1,4.5-0.2,6.7c-0.8,18,0.6,37.4,4.2,60.7
		c5.9-8.8,8.6-18.6,10.9-30.4C160.3,423.6,162.2,410.4,160.7,397.4z"/>
	<path fill="#EF5267" d="M368.9,485.9c0.1-1.5,0.1-3.2-0.3-5c-0.3-1.8-1-3.3-2.1-4.6c-0.9-1-2.1-1.5-3.8-1.5c-0.2,0-0.4,0-0.6,0
		c-3.2,0.2-6,2.2-8.4,5.9c-2.5,3.8-4.7,8.8-6.5,14.9c-1.8,6.3-4.1,16.4-4.1,18.7c2.5-0.4,10.7-4.9,15.6-9.5
		C364.8,498.9,368.2,492.7,368.9,485.9z"/>
	<path fill="#EF5267" d="M71.4,349.1c0.2-2.2-1.9-4.1-4-4.5c-0.4-0.1-0.8-0.1-1.2-0.1c-1.3,0-2.3,0.5-3.1,1.4
		c-1.8,2.1-2.5,6.5-1.8,11.9c0.1,0,0.2,0,0.4-0.1C65.3,356.7,71.1,352.7,71.4,349.1z"/>
	<path fill="#EF5267" d="M285.3,466.4c0-4-0.6-7.4-1.8-10c-1.1-2.4-2.4-3.5-4.2-3.5l-0.2,0c-1,0-1.6,0.4-2,1
		c-0.5,0.8-0.7,2.1-0.7,3.8c0.1,4.5,6.3,11.9,8.9,14.7c0-1.4,0-3.6,0-4.9L285.3,466.4z"/>
	<path fill="#EF5267" d="M51.7,272.4c-0.1-2.8-0.9-8.1-4.6-11.1c-1.9-1.5-4.4-2.4-7-2.4c-1.5,0-2.9,0.3-4.2,0.9
		c-3.6,1.6-6,5.6-5.7,9.5c0.8,10.5,13.4,15.3,19.5,17C51.3,281.2,51.9,276.8,51.7,272.4z"/>
	<path fill="#EF5267" d="M110.9,266.5c22-24.4,31.8-47.8,29.8-71.4c-0.6-7.8-3.2-13.7-7.6-17.4c-3.8-3.3-8.6-4.9-14.3-4.9
		c-0.9,0-1.7,0-2.6,0.1c-8.5,0.7-14.7,4.3-18.5,10.5c-3.5,5.8-4.7,13.3-3.5,22.5c1.2,9.4,4.7,22.8,11.2,42.3
		C107.5,254.6,109.3,260.7,110.9,266.5z"/>
	<path fill="#EF5267" d="M256.6,606.7c-1.4,2.2-2.2,4.3-2.1,7.5c0,1.3,0.2,2.6,1,3.7c0.7,1.1,2.1,1.8,3.3,1.4
		c1.7-0.6,2.2-2.9,1.9-4.7C260.1,611.6,258.3,609.1,256.6,606.7C256.6,606.7,256.6,606.7,256.6,606.7z"/>
	<path fill="#EF5267" d="M427.6,632c-1.7-3.4-13.4-0.9-16.4-0.8c-1,0-2.1-0.1-2.5-0.9c-1.7-3.4,2.1-8.1-0.8-11.7
		c-0.8-0.9-2.1-0.9-3.3-0.9c-3.5,0.2-12.6,1.8-15.6-0.7c-2.9-2.4,1.1-8.8-2-11.2c-4.5-3.4-13.9-1.4-19-1c-3.6,0.3-7.4,0-11.1,0
		c-8,0-16,0-23.9,0c-13.6,10.5-27.7,20.5-41.4,30.3c-5.2,3.7-10.5,7.5-15.7,11.2c-0.4,0.3-0.7,0.4-1.1,0.7
		c26.7-0.1,80.3-0.5,98.1,0.3c9.5,0.4,19.1,0.5,28.7,0.4c3.6,0,7.7,0,11.4-0.1c5.1,0,10.3,0.3,15.4,0.3c1,0,0.4-10.1-0.3-14.3
		C427.9,632.9,427.8,632.3,427.6,632z"/>
	<path fill="#EF5267" d="M231.9,637c-16.9,0-33.8,0-50.7,0c0-12.6,0-25.2,0-37.8c-3.5-2.8-6.9-5.6-10.3-8.4c0,15.4,0,30.8,0,46.2
		c-16.8,0-33.6,0-50.4,0c0-30.9,0-61.7,0-92.6c-3.5-3.5-6.9-7.1-10.3-10.7c0,34.4,0,68.8,0,103.2c-18.4,0-36.9,0-55.3,0
		c0-57,0-114,0-170.9c-3.6-5.2-7-10.4-10.3-15.6c0,62.2,0,124.4,0,186.5c-6.8,0-13.6,0-20.4,0c-6.6,0-6.6,10.3,0,10.3
		c74.3,0,148.6,0,223,0c-0.4-0.3-0.8-0.5-1.3-0.8C241.2,643.4,236.5,640.2,231.9,637z"/>
</g>
</svg>
