<?xml version="1.0" standalone="no"?>
<!DOCTYPE svg PUBLIC "-//W3C//DTD SVG 20010904//EN"
 "http://www.w3.org/TR/2001/REC-SVG-20010904/DTD/svg10.dtd">
<svg version="1.0" xmlns="http://www.w3.org/2000/svg"
 width="1178.000000pt" height="1280.000000pt" viewBox="0 0 1178.000000 1280.000000"
 preserveAspectRatio="xMidYMid meet">
<metadata>
Created by potrace 1.15, written by Peter Selinger 2001-2017
</metadata>
<g transform="translate(0.000000,1280.000000) scale(0.100000,-0.100000)"
fill="#000000" stroke="none">
<path d="M4777 11987 l-1089 -812 2 -475 c0 -261 5 -842 10 -1290 5 -448 10
-948 10 -1111 l0 -297 137 -148 c76 -82 430 -466 788 -853 l649 -705 2 -60 c1
-34 2 -68 2 -76 1 -8 -1 -114 -4 -235 -2 -121 -4 -228 -4 -237 0 -17 0 -50 -1
-115 0 -16 0 -77 0 -138 0 -60 1 -119 0 -130 0 -11 0 -36 0 -55 0 -19 0 -48 0
-65 0 -16 0 -79 0 -140 0 -60 1 -119 0 -130 0 -11 0 -38 0 -60 1 -22 1 -53 0
-70 0 -54 0 -120 0 -137 1 -10 1 -34 1 -53 -1 -40 -1 -57 0 -210 0 -60 0 -117
-1 -125 0 -8 0 -31 0 -50 0 -19 0 -48 0 -65 0 -16 0 -79 0 -140 0 -60 1 -120
0 -132 0 -13 1 -41 2 -64 1 -22 -3 -45 -8 -50 -7 -7 -196 180 -557 550 -702
719 -1128 1131 -1263 1220 -28 19 -59 31 -78 31 -18 0 -570 -36 -1226 -80
-657 -44 -1399 -94 -1649 -110 -250 -17 -460 -32 -466 -34 -18 -6 -37 -92 -30
-131 9 -48 56 -99 119 -129 l52 -25 495 44 c486 43 1328 116 2230 195 250 22
471 41 491 44 36 4 39 1 519 -486 l483 -489 -159 104 c-323 212 -577 352 -627
345 -24 -3 -28 -9 -110 -184 l-52 -112 -175 75 c-450 190 -750 303 -805 303
-20 0 -33 -18 -89 -122 -1569 -2964 -1576 -2979 -1566 -3018 25 -92 112 -160
230 -179 35 -6 65 -9 67 -7 3 3 221 450 990 2031 289 594 527 1082 529 1084 6
6 738 -317 742 -328 2 -5 -124 -288 -279 -628 -155 -340 -361 -793 -459 -1008
-230 -505 -595 -1305 -822 -1805 -99 -217 -202 -442 -230 -500 -64 -132 -69
-189 -23 -226 34 -27 124 -46 142 -30 6 6 135 281 286 611 327 715 1393 3042
1514 3305 47 102 86 187 88 189 2 2 122 -49 267 -112 145 -63 485 -213 757
-332 279 -122 520 -234 555 -257 33 -23 111 -91 173 -151 109 -107 112 -109
148 -103 28 6 44 2 71 -14 l34 -22 64 30 c35 16 89 46 120 66 l56 36 1143
-689 1142 -688 7 -54 c4 -30 17 -297 28 -594 11 -297 25 -666 32 -820 l11
-280 40 -42 c53 -55 125 -86 204 -87 34 -1 64 1 66 4 3 3 -27 413 -67 913 -66
818 -75 909 -92 928 -65 73 -620 416 -1956 1209 -153 91 -278 167 -278 170 0
3 46 18 103 33 56 15 129 37 162 47 33 11 218 65 410 120 341 99 520 151 1236
359 191 56 353 101 361 101 9 0 87 -84 175 -186 l160 -185 694 -1815 c382
-999 697 -1820 700 -1826 3 -5 33 -12 65 -14 98 -8 161 40 182 142 9 43 5 55
-183 517 -106 259 -265 652 -355 872 -89 220 -202 497 -250 615 -48 118 -156
384 -240 590 -84 206 -188 461 -231 567 -73 178 -77 194 -67 229 6 22 7 65 3
101 -7 63 -8 66 -88 155 -81 89 -82 92 -162 286 l-81 197 -96 -2 -97 -2 -91
101 c-50 56 -87 104 -83 109 4 4 124 68 266 142 l257 135 1341 -1557 c1247
-1448 1342 -1556 1374 -1559 111 -10 205 71 205 176 0 38 -45 89 -1376 1563
-756 838 -1390 1538 -1409 1556 l-34 32 -53 -15 c-98 -30 -202 -75 -461 -202
-253 -124 -258 -125 -276 -106 -10 10 -280 308 -600 662 -320 353 -589 642
-597 642 -28 0 -117 -158 -338 -605 -123 -247 -229 -465 -236 -482 -7 -18 -16
-30 -21 -28 -4 3 -2 20 6 38 13 32 10 83 -5 92 -5 3 -2 19 7 36 10 19 12 40 8
57 -4 15 -7 57 -6 94 1 36 -2 69 -8 72 -6 4 -5 18 4 39 13 32 10 83 -5 92 -5
3 -2 19 7 36 10 21 13 41 8 67 -5 20 -7 75 -7 122 1 47 1 101 1 120 0 19 0 47
0 63 2 50 3 92 2 122 0 17 0 46 0 65 1 19 0 46 0 60 -1 14 1 41 5 61 3 20 1
46 -5 57 -8 15 -7 28 5 52 14 28 14 36 2 68 l-14 37 425 354 c235 194 650 538
924 764 l497 410 0 1696 -1 1696 -157 106 c-86 58 -613 415 -1170 793 -558
378 -1019 689 -1025 691 -7 2 -502 -362 -1100 -808z m2786 -6986 l416 -485
-222 -116 c-122 -65 -438 -233 -702 -375 -556 -299 -699 -375 -708 -375 -3 0
5 11 18 25 19 18 25 35 25 69 0 25 -4 47 -9 51 -6 3 -4 18 4 38 13 32 10 83
-5 92 -5 3 -2 19 7 36 10 19 12 40 8 57 -4 15 -7 57 -6 94 1 36 -2 69 -8 72
-6 4 -5 18 4 39 13 32 10 83 -5 92 -5 3 -1 19 7 37 13 26 14 39 5 74 -9 33 -9
52 2 86 11 33 538 1141 562 1180 6 9 6 8 607 -691z m-3268 -859 c-1 -1 -53 21
-116 49 -63 28 -202 89 -309 136 -107 46 -199 88 -203 92 -5 5 4 33 19 64 l27
55 292 -196 c161 -108 291 -198 290 -200z m3884 143 c35 -42 62 -78 60 -80 -2
-2 -74 -22 -159 -45 -141 -38 -707 -199 -755 -215 -23 -7 119 69 505 273 146
77 270 141 275 141 6 1 39 -33 74 -74z"/>
</g>
</svg>
